<svg width="184" height="184" viewBox="0 0 184 184" fill="none" xmlns="http://www.w3.org/2000/svg">
<path fill-rule="evenodd" clip-rule="evenodd" d="M94.7679 40.0426C69.5986 41.0963 50 61.5443 50 86.5C50 112.127 70.8733 133 96.5 133C121.482 133 141.946 113.115 142.961 88.3264C143.005 87.2512 142.146 86.3758 141.079 86.2365C132.596 85.1293 125.615 78.848 123.624 70.4944C123.408 69.5884 122.655 68.895 121.731 68.7792C108.247 67.0907 97.5367 56.0331 96.8401 42.042C96.7844 40.9231 95.8872 39.9957 94.7679 40.0426ZM88 81.5C88 87.2989 83.299 92 77.5 92C71.701 92 67 87.2989 67 81.5C67 75.701 71.701 71 77.5 71C83.299 71 88 75.701 88 81.5ZM84 115C88.4183 115 92 111.418 92 107C92 102.582 88.4183 99 84 99C79.5817 99 76 102.582 76 107C76 111.418 79.5817 115 84 115ZM111 95C111 98.3137 108.314 101 105 101C101.686 101 99 98.3137 99 95C99 91.6862 101.686 89 105 89C108.314 89 111 91.6862 111 95Z" fill="#009CB5"/>
<path fill-rule="evenodd" clip-rule="evenodd" d="M73.5 76.5C68.5294 76.5 64.5 80.5294 64.5 85.5C64.5 90.4706 68.5294 94.5 73.5 94.5C78.4706 94.5 82.5 90.4706 82.5 85.5C82.5 80.5294 78.4706 76.5 73.5 76.5ZM61.5 85.5C61.5 78.8726 66.8726 73.5 73.5 73.5C80.1274 73.5 85.5 78.8726 85.5 85.5C85.5 92.1274 80.1274 97.5 73.5 97.5C66.8726 97.5 61.5 92.1274 61.5 85.5Z" fill="#F8F9FA"/>
<path fill-rule="evenodd" clip-rule="evenodd" d="M79 104.5C75.9624 104.5 73.5 106.962 73.5 110C73.5 113.038 75.9624 115.5 79 115.5C82.0376 115.5 84.5 113.038 84.5 110C84.5 106.962 82.0376 104.5 79 104.5ZM70.5 110C70.5 105.306 74.3056 101.5 79 101.5C83.6944 101.5 87.5 105.306 87.5 110C87.5 114.694 83.6944 118.5 79 118.5C74.3056 118.5 70.5 114.694 70.5 110Z" fill="#F8F9FA"/>
<path d="M101 105C104.314 105 107 102.314 107 99C107 95.6863 104.314 93 101 93C97.6863 93 95 95.6863 95 99C95 102.314 97.6863 105 101 105Z" fill="#F8F9FA"/>
<path fill-rule="evenodd" clip-rule="evenodd" d="M93.0317 49.5255C93.8461 49.3734 94.6295 49.9103 94.7816 50.7246C94.8126 50.8901 94.845 51.0551 94.8788 51.2194C95.0459 52.0308 94.5236 52.824 93.7122 52.9911C92.9008 53.1582 92.1075 52.6359 91.9405 51.8245C91.9029 51.6421 91.867 51.4591 91.8327 51.2755C91.6805 50.4611 92.2174 49.6776 93.0317 49.5255ZM94.3852 55.2037C95.152 54.8902 96.0277 55.2578 96.3412 56.0246C96.4683 56.3357 96.6009 56.6437 96.739 56.9487C97.0806 57.7034 96.7457 58.5922 95.991 58.9338C95.2363 59.2754 94.3476 58.9405 94.0059 58.1858C93.8526 57.8471 93.7053 57.505 93.5642 57.1597C93.2507 56.3928 93.6183 55.5171 94.3852 55.2037ZM97.1355 60.9437C97.8147 60.4694 98.7498 60.6355 99.2241 61.3147C99.4163 61.59 99.6134 61.8615 99.8153 62.1292C100.314 62.7905 100.183 63.7311 99.5211 64.23C98.8598 64.7289 97.9192 64.5972 97.4203 63.9358C97.1963 63.6389 96.9777 63.3377 96.7644 63.0323C96.2901 62.3531 96.4562 61.418 97.1355 60.9437ZM101.077 65.9415C101.637 65.3308 102.586 65.2896 103.196 65.8494C103.444 66.0762 103.695 66.2985 103.951 66.5162C104.582 67.0534 104.657 68.0001 104.12 68.6307C103.583 69.2614 102.636 69.3371 102.006 68.7999C101.722 68.5586 101.443 68.3122 101.169 68.0608C100.559 67.501 100.517 66.5522 101.077 65.9415ZM106.01 69.9647C106.424 69.2474 107.342 69.0018 108.059 69.4161C108.349 69.5838 108.643 69.7464 108.94 69.9038C109.672 70.2918 109.951 71.1997 109.563 71.9316C109.175 72.6636 108.267 72.9424 107.535 72.5544C107.206 72.38 106.88 72.1998 106.558 72.0139C105.841 71.5995 105.595 70.6821 106.01 69.9647ZM111.696 72.8246C111.945 72.0345 112.787 71.5958 113.577 71.8447C113.897 71.9454 114.219 72.0405 114.543 72.1298C115.342 72.3498 115.811 73.1756 115.591 73.9743C115.371 74.773 114.545 75.2421 113.746 75.0221C113.387 74.923 113.03 74.8177 112.676 74.706C111.886 74.4571 111.447 73.6147 111.696 72.8246ZM117.867 74.3831C117.939 73.5578 118.667 72.9474 119.492 73.0197C119.66 73.0343 119.827 73.0475 119.995 73.0592C120.692 73.1076 121.264 73.6306 121.373 74.3204C121.397 74.472 121.423 74.6228 121.45 74.7731C121.599 75.588 121.059 76.3693 120.244 76.5181C119.636 76.6291 119.047 76.3567 118.725 75.8727C118.171 75.6132 117.811 75.0279 117.867 74.3831ZM120.812 78.3756C121.571 78.0423 122.456 78.3869 122.789 79.1453C122.912 79.4257 123.042 79.7025 123.177 79.9755C123.546 80.7175 123.243 81.6177 122.501 81.9861C121.759 82.3546 120.859 82.0518 120.49 81.3098C120.334 80.9949 120.185 80.6757 120.043 80.3524C119.709 79.594 120.054 78.7089 120.812 78.3756ZM123.562 83.6134C124.199 83.0837 125.145 83.1705 125.674 83.8074C125.87 84.0426 126.071 84.273 126.277 84.4986C126.836 85.1103 126.793 86.0591 126.181 86.6178C125.57 87.1765 124.621 87.1336 124.062 86.522C123.825 86.2622 123.593 85.9968 123.368 85.7259C122.838 85.089 122.925 84.1432 123.562 83.6134ZM127.648 87.8911C128.115 87.2068 129.049 87.0307 129.733 87.4976C129.985 87.6698 130.242 87.8363 130.502 87.9967C131.207 88.4314 131.427 89.3555 130.992 90.0607C130.557 90.7659 129.633 90.9853 128.928 90.5506C128.628 90.3657 128.333 90.174 128.042 89.9756C127.358 89.5086 127.181 88.5754 127.648 87.8911ZM132.753 90.8811C133.012 90.0944 133.861 89.6669 134.647 89.9264C134.792 89.9742 134.938 90.0204 135.084 90.0648C135.877 90.3058 136.324 91.1436 136.083 91.9362C135.842 92.7289 135.004 93.1761 134.212 92.9352C134.043 92.8839 133.875 92.8306 133.708 92.7755C132.921 92.516 132.494 91.6678 132.753 90.8811Z" fill="#F8F9FA"/>
<path fill-rule="evenodd" clip-rule="evenodd" d="M43.5 92.5C43.5 65.4916 65.2849 43.5 92.8167 43.5C93.6451 43.5 94.3167 44.1716 94.3167 45C94.3167 45.8284 93.6451 46.5 92.8167 46.5C66.9374 46.5 46.5 67.1528 46.5 92.5C46.5 93.3284 45.8284 94 45 94C44.1716 94 43.5 93.3284 43.5 92.5ZM140 90.8944C140.828 90.8944 141.5 91.566 141.5 92.3944C141.5 103.687 137.667 114.11 131.24 122.418C122.272 134.011 108.239 141.5 92.5 141.5C75.8266 141.5 61.067 133.116 52.2143 120.355C51.7421 119.674 51.911 118.74 52.5917 118.268C53.2724 117.795 54.207 117.964 54.6792 118.645C62.9979 130.636 76.8557 138.5 92.5 138.5C107.265 138.5 120.439 131.478 128.868 120.582C134.904 112.78 138.5 102.998 138.5 92.3944C138.5 91.566 139.172 90.8944 140 90.8944Z" fill="#F8F9FA"/>
<path d="M117 27.5C112.306 27.5 108.5 31.3056 108.5 36C108.5 40.6944 112.306 44.5 117 44.5C121.694 44.5 125.5 40.6944 125.5 36C125.5 31.3056 121.694 27.5 117 27.5Z" fill="#F8F9FA"/>
<path fill-rule="evenodd" clip-rule="evenodd" d="M28.5 84.5C26.8431 84.5 25.5 85.8431 25.5 87.5C25.5 89.1569 26.8431 90.5 28.5 90.5C30.1569 90.5 31.5 89.1569 31.5 87.5C31.5 85.8431 30.1569 84.5 28.5 84.5ZM22.5 87.5C22.5 84.1863 25.1863 81.5 28.5 81.5C31.8137 81.5 34.5 84.1863 34.5 87.5C34.5 90.8137 31.8137 93.5 28.5 93.5C25.1863 93.5 22.5 90.8137 22.5 87.5Z" fill="#009CB5"/>
<path fill-rule="evenodd" clip-rule="evenodd" d="M30.5402 106.545C31.3437 106.344 32.1585 106.831 32.3601 107.635C32.3998 107.793 32.4402 107.952 32.4811 108.11C32.6891 108.911 32.2076 109.73 31.4057 109.938C30.6038 110.146 29.7851 109.665 29.5772 108.863C29.5342 108.697 29.4919 108.531 29.4502 108.365C29.2487 107.561 29.7366 106.747 30.5402 106.545ZM31.9861 111.859C32.769 111.588 33.6232 112.003 33.8942 112.786C34.0009 113.094 34.11 113.402 34.2215 113.708C34.5048 114.486 34.1035 115.347 33.325 115.63C32.5465 115.914 31.6858 115.512 31.4024 114.734C31.2855 114.413 31.1711 114.09 31.0592 113.767C30.7882 112.984 31.2032 112.13 31.9861 111.859ZM34.0857 117.487C34.8393 117.143 35.7292 117.475 36.0733 118.229C36.2087 118.525 36.3464 118.82 36.4864 119.114C36.8424 119.862 36.5247 120.757 35.7767 121.113C35.0287 121.469 34.1336 121.152 33.7776 120.404C33.6309 120.095 33.4865 119.786 33.3445 119.475C33.0003 118.721 33.3322 117.832 34.0857 117.487ZM36.7104 122.89C37.4279 122.476 38.3452 122.722 38.7593 123.44C38.9221 123.722 39.0871 124.003 39.2542 124.282C39.6795 124.993 39.4479 125.914 38.737 126.339C38.0261 126.765 37.105 126.533 36.6797 125.822C36.5045 125.529 36.3315 125.235 36.1608 124.939C35.7468 124.221 35.9928 123.304 36.7104 122.89ZM39.8345 128.02C40.5097 127.54 41.4462 127.698 41.9261 128.374C42.1149 128.639 42.3059 128.904 42.4988 129.166C42.9893 129.834 42.8456 130.773 42.178 131.263C41.5103 131.754 40.5715 131.61 40.081 130.942C39.8788 130.667 39.6787 130.39 39.4807 130.111C39.0008 129.436 39.1592 128.5 39.8345 128.02ZM43.4287 132.833C44.0558 132.292 45.003 132.361 45.5443 132.988C45.7573 133.235 45.9721 133.48 46.1889 133.723C46.7399 134.342 46.6852 135.29 46.0666 135.841C45.448 136.392 44.4998 136.337 43.9488 135.719C43.7216 135.464 43.4964 135.207 43.2732 134.948C42.7319 134.321 42.8015 133.374 43.4287 132.833ZM47.4592 137.286C48.0328 136.689 48.9823 136.669 49.5801 137.243C49.8152 137.468 50.0522 137.692 50.2909 137.914C50.8975 138.478 50.932 139.427 50.3679 140.034C49.8038 140.641 48.8547 140.675 48.248 140.111C47.9978 139.878 47.7495 139.644 47.503 139.407C46.9053 138.834 46.8856 137.884 47.4592 137.286ZM51.8902 141.342C52.4051 140.693 53.3486 140.584 53.9976 141.099C54.2528 141.302 54.5096 141.502 54.768 141.701C55.425 142.205 55.5485 143.147 55.0439 143.804C54.5393 144.461 53.5976 144.584 52.9406 144.08C52.6697 143.872 52.4005 143.662 52.133 143.449C51.484 142.935 51.3753 141.991 51.8902 141.342ZM56.6824 144.963C57.1339 144.268 58.0629 144.071 58.7575 144.523C59.0306 144.7 59.3052 144.876 59.5813 145.049C60.2829 145.49 60.4946 146.415 60.0542 147.117C59.6137 147.819 58.6878 148.03 57.9862 147.59C57.6968 147.408 57.4089 147.224 57.1226 147.038C56.428 146.587 56.2309 145.658 56.6824 144.963ZM61.7946 148.116C62.1784 147.382 63.0846 147.098 63.8188 147.482C64.1076 147.633 64.3978 147.782 64.6893 147.928C65.4294 148.3 65.7278 149.202 65.3557 149.942C64.9836 150.682 64.0819 150.981 63.3417 150.608C63.0361 150.455 62.7319 150.299 62.429 150.141C61.6949 149.757 61.4108 148.85 61.7946 148.116ZM67.1829 150.772C67.4953 150.005 68.3705 149.636 69.1378 149.948C69.4391 150.071 69.7417 150.191 70.0454 150.309C70.8176 150.609 71.2002 151.479 70.9001 152.251C70.5999 153.023 69.7307 153.406 68.9585 153.105C68.64 152.982 68.3227 152.855 68.0066 152.727C67.2394 152.414 66.8706 151.539 67.1829 150.772ZM72.7984 152.903C73.0363 152.11 73.8725 151.659 74.666 151.897C74.9775 151.991 75.2901 152.082 75.6037 152.17C76.4009 152.395 76.8645 153.224 76.6392 154.022C76.414 154.819 75.5851 155.282 74.7879 155.057C74.459 154.964 74.1312 154.869 73.8044 154.771C73.0109 154.533 72.5605 153.697 72.7984 152.903ZM78.5906 154.49C78.7519 153.678 79.5415 153.15 80.354 153.311C80.6734 153.375 80.9937 153.435 81.3149 153.494C82.1299 153.642 82.6702 154.424 82.5218 155.239C82.3733 156.054 81.5922 156.594 80.7772 156.445C80.4405 156.384 80.1046 156.32 79.7697 156.254C78.9571 156.092 78.4292 155.303 78.5906 154.49ZM84.5081 155.52C84.5919 154.696 85.328 154.095 86.1521 154.179C86.4767 154.212 86.8019 154.243 87.128 154.271C87.9533 154.341 88.5651 155.068 88.4942 155.893C88.4234 156.719 87.6969 157.33 86.8715 157.26C86.5298 157.23 86.1889 157.198 85.8487 157.164C85.0245 157.08 84.4243 156.344 84.5081 155.52ZM90.4973 155.986C90.5038 155.158 91.1805 154.492 92.0089 154.498C92.1724 154.499 92.3361 154.5 92.4999 154.5C93.3283 154.5 93.9999 155.172 93.9999 156C93.9999 156.828 93.3283 157.5 92.4999 157.5C92.3283 157.5 92.1569 157.499 91.9857 157.498C91.1573 157.492 90.4909 156.815 90.4973 155.986Z" fill="#009CB5"/>
<path d="M130.5 49.5C127.186 49.5 124.5 52.1863 124.5 55.5C124.5 58.8137 127.186 61.5 130.5 61.5C133.814 61.5 136.5 58.8137 136.5 55.5C136.5 52.1863 133.814 49.5 130.5 49.5Z" fill="#009CB5"/>
</svg>
