<svg width="327" height="48" viewBox="0 0 327 48" fill="none" xmlns="http://www.w3.org/2000/svg">
<path fill-rule="evenodd" clip-rule="evenodd" d="M71.4884 0L54.415 48H64.0767L68.444 35.3121H84.6577L89.1581 48H99.6802L82.937 0H71.4884ZM76.7828 9.62647L82.6725 28.0831H70.5617L76.7828 9.62647ZM285.1 48H294.43V16.0899L318.982 48H326.063V0H316.666V30.362L293.835 0H285.1V48ZM114.171 24.2988H124.826C129.392 22.3733 131.509 19.9169 131.509 14.9379C131.509 9.75927 127.804 7.70139 121.715 7.70139C117.877 7.70139 114.171 8.36499 114.171 8.36499V24.2988ZM121.45 31.8007L132.105 48H143.355L130.913 30.0745C135.281 28.1495 141.37 23.9005 141.37 14.0084C141.37 4.31548 133.958 4.13333e-05 121.583 4.13333e-05C110.796 4.13333e-05 104.774 1.65964 104.774 1.65964V48H114.171V31.8007H121.45ZM148.912 48V0H181.14V8.14577H158.376V20.1968H178.03V28.0055H158.376V39.8543H181.735V48H148.912ZM188.749 48H198.08V16.0899L222.632 48H229.713V0H220.315V30.362L197.484 0H188.749V48ZM257.108 9.62637L250.888 28.0831H262.999L257.108 9.62637ZM248.77 35.3121H264.984L269.484 48H280.006L263.264 0H251.815L234.741 48H244.402L248.77 35.3121Z" fill="white"/>
<path fill-rule="evenodd" clip-rule="evenodd" d="M48.7091 2.22576V45.7733C48.7091 46.9616 47.6816 47.9999 46.5541 47.9999H2.9826C1.75865 47.9999 0.72998 46.9616 0.72998 45.7733V2.22576C0.72998 0.99024 1.75865 0 2.9826 0H46.5541C47.6816 0 48.7091 0.99024 48.7091 2.22576ZM25.1371 10.1238H23.18C22.8222 10.1238 21.7342 10.1238 21.7342 11.2064V12.0732C21.7342 12.412 21.8837 13.2005 23.2702 13.2005H23.5996V29.3371C23.5996 30.2585 23.8112 30.8299 24.8636 30.8299H25.5018C26.5767 30.8299 26.7215 30.0751 26.7215 29.3371V12.3919C26.7215 11.5436 26.7215 10.1238 25.1371 10.1238ZM40.225 27.7988C40.0219 27.7988 39.8168 27.8391 39.58 27.8855L39.5759 27.8863L39.4848 27.9043C39.0005 28.0012 38.1898 28.1632 36.9056 28.1632C33.5814 28.1632 33.19 27.5987 33.086 24.9979H39.4394C40.9052 24.9979 41.5593 24.4216 41.5593 23.1295C41.5593 20.3819 40.9824 16.729 35.9955 16.729C31.7836 16.729 29.9051 19.0156 29.9051 24.1439C29.9051 29.1502 31.6548 31.0116 36.3601 31.0116C38.3166 31.0116 39.8652 30.7105 40.4724 30.4324C40.8584 30.2678 41.2157 30.0217 41.2157 29.3351V28.8355C41.2157 28.1862 40.8451 27.7988 40.225 27.7988ZM18.5536 17.0945H19.3268C20.0009 17.0945 20.4546 17.5474 20.4546 18.2218C20.4546 18.7384 20.1877 19.7931 20.1692 19.8659C20.0666 20.297 17.6559 30.4152 16.7535 33.7686C16.2274 35.722 14.6189 36.8874 12.4512 36.8874C10.3354 36.8874 9.62459 36.7471 9.05268 36.4874C8.67257 36.3254 8.31812 36.0802 8.31812 35.3951V34.8491C8.31812 34.1989 8.68864 33.8113 9.30937 33.8113C9.50235 33.8113 9.70363 33.8341 9.95675 33.8628L9.97244 33.8646L10.0097 33.8692L10.0159 33.8699C10.4596 33.9219 11.0659 33.993 11.9958 33.993C13.0547 33.993 13.6667 33.7613 14.0738 32.4941C14.1755 32.1774 14.3413 31.3868 14.4746 30.6932H13.4681C11.8379 30.6932 10.9183 29.9693 10.4867 28.3469L8.16387 20.0611C7.93693 19.2001 7.83161 18.6163 7.83161 18.2218C7.83161 17.5051 8.25935 17.0945 9.00566 17.0945H9.8249C10.697 17.0945 10.8849 17.8078 11.0508 18.4376L11.075 18.5298L13.2613 26.821C13.5201 27.8538 13.8803 27.9634 14.6761 27.9347H15.0476L17.2075 18.5422C17.4158 17.6249 17.703 17.0945 18.5536 17.0945ZM36.0446 19.2091C34.1358 19.21 33.2237 20.2077 33.1025 22.4375L38.7623 22.4326C38.6783 20.1751 37.8597 19.2091 36.0446 19.2091Z" fill="white"/>
</svg>
