<svg width="382" height="49" viewBox="0 0 382 49" fill="none" xmlns="http://www.w3.org/2000/svg">
<path fill-rule="evenodd" clip-rule="evenodd" d="M81.5236 4.76652C81.5236 5.66448 81.24 6.44522 80.6747 7.10811C80.1088 7.77223 79.4355 8.3185 78.6554 8.74692C77.9532 9.17718 77.2302 9.63568 76.4893 10.123C75.7472 10.611 75.0647 11.1573 74.4405 11.7618C73.8157 12.367 73.3081 13.0404 72.9183 13.7818C72.5279 14.5233 72.3334 15.3617 72.3334 16.2983C72.3334 17.1184 72.5279 17.8598 72.9183 18.5233C73.3081 19.1868 73.7868 19.8399 74.3527 20.4837C74.918 21.1276 75.5428 21.7917 76.226 22.4743C76.9085 23.1574 77.5334 23.9185 78.0993 24.7569C78.6646 25.5972 79.1427 26.5424 79.5331 27.5963C79.9234 28.6502 80.1186 29.8796 80.1186 31.2839C80.1186 32.2598 79.9136 33.3622 79.5042 34.5916C79.0942 35.821 78.5381 37.0603 77.836 38.3087C77.1332 39.5578 76.3039 40.7669 75.3477 41.938C74.3914 43.1085 73.3768 44.1532 72.3039 45.0696C71.2304 45.986 70.109 46.728 68.9379 47.2939C67.7674 47.8598 66.635 48.1428 65.543 48.1428C64.3327 48.1428 63.2598 47.8107 62.3231 47.1479C61.3865 46.4837 60.9182 45.4894 60.9182 44.1624C60.9182 43.265 61.1324 42.4358 61.5626 41.6747C61.9911 40.9136 62.5183 40.182 63.1431 39.4792C63.7667 38.777 64.4597 38.0945 65.2208 37.4304C65.9819 36.7675 66.6742 36.104 67.2991 35.4405C67.9227 34.7776 68.4499 34.0846 68.8796 33.3622C69.3086 32.641 69.5234 31.8695 69.5234 31.0501C69.5234 29.9189 69.1226 28.7576 68.3235 27.5668C67.5231 26.3767 66.635 25.1479 65.6597 23.8792C64.6837 22.6111 63.7962 21.3136 62.9964 19.9866C62.1961 18.6602 61.7965 17.3135 61.7965 15.9472C61.7965 14.2698 62.2446 12.5033 63.1431 10.6497C64.0399 8.79664 65.192 7.0989 66.5969 5.55707C68.0013 4.01585 69.5818 2.73795 71.3378 1.72275C73.0945 0.708773 74.8302 0.201172 76.5482 0.201172C77.9133 0.201172 79.0844 0.610567 80.0603 1.42997C81.0356 2.24938 81.5236 3.36156 81.5236 4.76652ZM58.9575 40.0062C59.0938 38.9143 59.1626 37.9776 59.1626 37.1963C59.1626 34.5822 58.987 31.9773 58.6353 29.3816C58.2842 26.7871 57.8546 24.2215 57.3476 21.6841C57.1518 20.6302 56.9278 19.421 56.6749 18.0547C56.4202 16.6891 56.1083 15.2939 55.7382 13.8693C55.3669 12.4454 54.9084 11.0404 54.3621 9.65446C53.8152 8.26976 53.1327 7.03053 52.3133 5.93737C51.4939 4.84545 50.537 3.96712 49.4451 3.303C48.3519 2.64011 47.0642 2.30806 45.5819 2.30806C44.0597 2.30806 42.6738 2.69842 41.4254 3.47855C40.1763 4.2599 39.0641 5.27448 38.0888 6.52293C37.1129 7.77198 36.245 9.18615 35.4839 10.7666C34.7228 12.3471 34.0587 13.9479 33.4934 15.5671C32.9275 17.1868 32.4493 18.7569 32.0596 20.2791C31.6686 21.8013 31.3568 23.1283 31.123 24.2595C30.6546 26.4065 30.2446 28.5622 29.8935 30.7282C29.5424 32.8943 29.3669 35.0892 29.3669 37.3135C29.3669 37.9776 29.3964 38.8062 29.4547 39.8012C29.513 40.7968 29.6787 41.7622 29.9518 42.6989C30.225 43.6355 30.6252 44.4457 31.1518 45.1282C31.679 45.8114 32.4107 46.1527 33.3473 46.1527C34.5565 46.1527 35.5809 45.7046 36.4205 44.806C37.259 43.9093 37.9421 42.845 38.4694 41.6162C38.996 40.3867 39.3864 39.1088 39.6405 37.7818C39.8933 36.4554 40.0591 35.3433 40.1376 34.4453C42.869 34.0942 45.6402 33.6842 48.4501 33.2159C48.4888 34.1139 48.5379 35.323 48.5962 36.8452C48.6551 38.3674 48.8399 39.8601 49.1523 41.3234C49.4641 42.7867 49.9809 44.0455 50.7034 45.0988C51.4252 46.1527 52.5079 46.6793 53.9521 46.6793C55.0447 46.6793 55.9224 46.3374 56.5865 45.6549C57.25 44.9723 57.7766 44.1333 58.167 43.1377C58.5567 42.1428 58.8207 41.0994 58.9575 40.0062ZM26.9374 40.5328C27.7372 39.6747 28.1374 38.7577 28.1374 37.7818C28.1374 36.9624 27.971 36.3093 27.6396 35.8207C27.3075 35.3334 26.8791 34.9627 26.3519 34.7085C25.8252 34.4551 25.22 34.2899 24.5375 34.2108C23.8538 34.1334 23.181 34.0942 22.5182 34.0942C20.6443 34.0942 18.6734 34.3384 16.6056 34.8258C14.5365 35.3137 12.6251 35.8306 10.8691 36.3768V34.0942C10.8691 31.0498 10.9366 28.0355 11.0741 25.05C11.2098 22.0646 11.2785 19.0496 11.2785 16.0059V13.957C11.2785 13.099 11.2392 12.1623 11.1619 11.1471C11.0827 10.1332 10.9569 9.10875 10.7813 8.0739C10.6058 7.04029 10.3511 6.10365 10.0202 5.26399C9.68818 4.42556 9.24932 3.7418 8.70305 3.21517C8.15617 2.68854 7.49267 2.42523 6.71254 2.42523C5.58072 2.42523 4.64408 2.95186 3.90324 4.00573C3.47298 4.66984 3.07341 5.58623 2.70329 6.75672C2.33195 7.92782 2.01953 9.24439 1.76665 10.7083C1.51255 12.1715 1.2879 13.7226 1.09333 15.362C0.897533 17.0008 0.742245 18.6108 0.625012 20.1913C0.507778 21.7718 0.420007 23.2553 0.361697 24.64C0.302774 26.0259 0.273926 27.2062 0.273926 28.1815C0.273926 28.7671 0.302774 29.5865 0.361697 30.6404C0.420007 31.6942 0.497958 32.8457 0.59555 34.0942C0.692528 35.3432 0.819582 36.6211 0.976097 37.9279C1.13139 39.2358 1.31736 40.4554 1.53219 41.5866C1.7464 42.7191 1.97105 43.6938 2.20551 44.5138C2.43936 45.3332 2.7125 45.8598 3.02492 46.0937C3.57119 46.5626 4.26354 46.864 5.1032 47.0015C5.94163 47.1377 6.73157 47.2059 7.47364 47.2059C8.25376 47.2059 9.31745 47.1083 10.6641 46.9137C12.0107 46.7179 13.4446 46.4349 14.9667 46.0648C16.4883 45.6947 18.0295 45.2454 19.591 44.7182C21.1513 44.1915 22.566 43.5771 23.8347 42.8744C25.1028 42.1722 26.137 41.3921 26.9374 40.5328ZM110.544 8.54222C111.305 7.74307 111.686 6.85492 111.686 5.879C111.686 4.9037 111.442 4.1426 110.954 3.59572C110.466 3.05006 109.851 2.64005 109.11 2.3663C108.368 2.09378 107.578 1.92745 106.739 1.86914C105.9 1.81083 105.109 1.78136 104.369 1.78136C103.587 1.78136 102.486 1.83967 101.061 1.95691C99.6359 2.07414 98.0757 2.26012 96.3786 2.513C94.6802 2.76711 92.9628 3.11819 91.2271 3.56626C89.49 4.01555 87.9095 4.56182 86.4855 5.20568C85.0603 5.84954 83.8905 6.61064 82.9735 7.48896C82.0565 8.36668 81.5974 9.39109 81.5974 10.5616C81.5974 11.2644 81.8521 11.8401 82.3585 12.2888C82.8661 12.7381 83.4706 13.0892 84.1734 13.3426C84.8756 13.5968 85.6072 13.7723 86.3683 13.8693C87.1294 13.9669 87.7438 14.0154 88.2121 14.0154C88.7977 14.0154 89.3728 13.9963 89.9393 13.957C90.5046 13.9184 91.0601 13.8601 91.6076 13.7815C91.6076 15.772 91.5972 17.7232 91.5781 19.6352C91.5585 21.5477 91.5487 23.499 91.5487 25.4889C91.5487 27.8697 91.5683 30.2402 91.6076 32.6014C91.6463 34.9627 91.7046 37.3135 91.7831 39.6551C91.7831 40.3965 91.8415 41.2263 91.9587 42.1427C92.0759 43.0603 92.2999 43.9282 92.632 44.7476C92.9628 45.567 93.4312 46.2594 94.037 46.8259C94.6409 47.3912 95.4505 47.6748 96.4663 47.6748C97.3238 47.6748 98.0462 47.4207 98.6318 46.9137C99.2173 46.4061 99.6758 45.7825 100.008 45.0404C100.339 44.2996 100.573 43.509 100.71 42.6694C100.846 41.8309 100.915 41.06 100.915 40.3572C100.915 38.797 100.876 37.2355 100.798 35.674C100.719 34.1138 100.681 32.5333 100.681 30.9325C100.681 27.9281 100.768 24.9328 100.945 21.9473C101.12 18.9619 101.363 15.9672 101.676 12.9621C102.416 12.8062 103.353 12.5331 104.486 12.1427C105.617 11.7523 106.719 11.2552 107.793 10.6494C108.866 10.0454 109.783 9.3426 110.544 8.54222ZM136.314 36.6696C136.314 37.411 136.118 38.1329 135.728 38.8357C135.338 39.4992 134.42 40.2799 132.977 41.1766C131.533 42.0752 129.933 42.9235 128.177 43.7232C126.421 44.5236 124.723 45.2068 123.084 45.772C121.446 46.3373 120.235 46.6209 119.455 46.6209C118.908 46.6209 118.264 46.4939 117.524 46.2404C116.782 45.9863 116.039 45.6653 115.299 45.2749C114.557 44.8845 113.884 44.4358 113.279 43.9282C112.674 43.4212 112.235 42.9333 111.963 42.4644C111.806 42.1924 111.66 41.645 111.523 40.8255C111.386 40.0061 111.269 39.0505 111.172 37.9573C111.074 36.8654 110.987 35.7035 110.909 34.4741C110.83 33.2453 110.763 32.0742 110.704 30.962C110.645 29.8498 110.606 28.8647 110.586 28.006C110.566 27.1479 110.558 26.5237 110.558 26.1327C110.558 24.6891 110.606 23.03 110.704 21.1574C110.801 19.2841 110.987 17.4016 111.26 15.5081C111.532 13.6158 111.933 11.8014 112.46 10.0644C112.987 8.32801 113.698 6.85492 114.596 5.64454C114.869 5.29345 115.416 4.92334 116.236 4.53236C117.055 4.1426 118.021 3.77126 119.133 3.42017C120.245 3.06909 121.446 2.73764 122.733 2.42523C124.021 2.11342 125.259 1.8495 126.45 1.63467C127.641 1.42046 128.723 1.24492 129.699 1.10804C130.674 0.971781 131.417 0.903037 131.924 0.903037C132.509 0.903037 133.065 1.0307 133.592 1.28358C134.118 1.53769 134.567 1.87896 134.938 2.30799C135.309 2.73764 135.601 3.21517 135.816 3.74241C136.03 4.26904 136.138 4.82513 136.138 5.41068C136.138 5.91828 136.07 6.34732 135.933 6.69841C135.796 7.04949 135.591 7.43986 135.318 7.8689C134.929 8.3765 134.109 8.98108 132.86 9.68386C131.611 10.386 130.255 11.0796 128.792 11.7615C127.328 12.4453 125.923 13.0597 124.577 13.606C123.231 14.1522 122.285 14.5426 121.738 14.7765C121.582 15.6744 121.416 16.5816 121.241 17.4986C121.065 18.4162 120.938 19.3424 120.86 20.279C122.069 19.6554 123.435 19.0699 124.958 18.523C126.48 17.9767 127.923 17.7036 129.289 17.7036C132.06 17.7036 133.446 19.0699 133.446 21.8012C133.446 22.4647 133.319 23.0503 133.065 23.5573C132.81 24.0649 132.48 24.5136 132.07 24.9033C131.66 25.2943 131.192 25.6349 130.665 25.9277C130.138 26.2205 129.621 26.5041 129.114 26.7766C127.864 27.4407 126.557 28.0158 125.192 28.5038C123.825 28.9917 122.46 29.4693 121.095 29.9376C121.015 30.2506 120.938 30.5919 120.86 30.962C120.781 31.3333 120.743 31.6942 120.743 32.0453C120.743 32.5916 120.781 33.1385 120.86 33.6841L120.91 34.032L120.911 34.0401C120.972 34.4681 121.033 34.8957 121.095 35.3229C121.562 35.1677 122.313 34.9136 123.348 34.5619C124.381 34.2108 125.464 33.8597 126.596 33.5086C127.728 33.1575 128.821 32.8555 129.875 32.6014C130.929 32.3479 131.709 32.2203 132.216 32.2203C132.802 32.2203 133.348 32.3479 133.855 32.6014C134.362 32.8555 134.792 33.1864 135.143 33.5964C135.495 34.0064 135.777 34.4845 135.992 35.0308C136.206 35.5777 136.314 36.1233 136.314 36.6696ZM171.978 24.4056C172.056 22.8257 172.095 21.6061 172.095 20.7474C172.095 20.0839 172.074 19.1669 172.036 17.9964C171.997 16.8253 171.899 15.5572 171.743 14.191C171.587 12.8259 171.372 11.4308 171.1 10.0062C170.826 8.58156 170.456 7.29384 169.987 6.14238C169.519 4.99153 168.934 4.04507 168.231 3.303C167.529 2.56216 166.689 2.19082 165.714 2.19082C164.895 2.19082 164.201 2.4836 163.636 3.06915C163.07 3.65409 162.602 4.40598 162.231 5.32297C161.86 6.23997 161.577 7.26438 161.382 8.39559C161.186 9.52802 161.04 10.6494 160.943 11.7616C160.846 12.8738 160.787 13.9184 160.768 14.8937C160.748 15.8697 160.738 16.6308 160.738 17.1764C160.738 18.4261 160.748 19.6936 160.768 20.9813C160.787 22.269 160.816 23.5573 160.856 24.8451V26.8061C160.856 26.9817 160.865 27.1775 160.885 27.3917C160.904 27.6065 160.914 27.9674 160.914 28.4744C160.68 27.8888 160.484 27.3622 160.329 26.8939C160.172 26.4648 160.036 26.0745 159.919 25.7228C159.802 25.3717 159.723 25.1581 159.684 25.0789C159.099 23.2056 158.494 21.3618 157.87 19.5475C157.246 17.7325 156.601 15.9089 155.938 14.0737C155.587 13.1377 155.157 11.9666 154.651 10.5616C154.143 9.15668 153.518 7.81065 152.777 6.52293C152.035 5.2352 151.187 4.12302 150.231 3.18638C149.274 2.24975 148.191 1.78143 146.982 1.78143C145.732 1.78143 144.641 2.35777 143.704 3.50801C142.767 4.66008 141.967 6.14238 141.304 7.95673C140.64 9.7717 140.104 11.7911 139.694 14.0154C139.285 16.2398 138.953 18.4058 138.699 20.5136C138.444 22.6207 138.279 24.5431 138.201 26.2795C138.123 28.0159 138.084 29.3331 138.084 30.2304C138.084 30.816 138.104 31.5967 138.143 32.572C138.181 33.5479 138.269 34.6116 138.406 35.7619C138.543 36.9139 138.737 38.0844 138.992 39.2746C139.245 40.4653 139.586 41.5382 140.016 42.4939C140.445 43.4508 140.972 44.2309 141.597 44.8355C142.22 45.4407 142.981 45.7426 143.879 45.7426H144.055C144.407 45.6653 144.728 45.6064 145.021 45.5671C145.314 45.529 145.636 45.4118 145.987 45.216C146.611 44.8649 147.109 44.3187 147.479 43.5772C147.85 42.8358 148.132 42.036 148.328 41.1767C148.523 40.3186 148.669 39.4501 148.768 38.5724C148.864 37.6941 148.952 36.9238 149.031 36.2596C149.265 34.6208 149.391 32.9722 149.411 31.3131C149.431 29.6553 149.441 27.987 149.441 26.3083V24.6695C150.181 26.6594 150.963 28.6205 151.782 30.5527C152.602 32.4842 153.421 34.4453 154.241 36.4358C154.63 37.3718 155.119 38.4067 155.704 39.5379C156.29 40.6703 156.971 41.7328 157.753 42.7283C158.534 43.7233 159.411 44.563 160.387 45.2455C161.362 45.9274 162.436 46.2699 163.607 46.2699C164.856 46.2699 165.928 45.7531 166.826 44.7182C167.724 43.6846 168.485 42.368 169.109 40.7673C169.733 39.1678 170.241 37.3823 170.631 35.4108C171.02 33.4405 171.324 31.5089 171.538 29.616C171.752 27.7237 171.899 25.9867 171.978 24.4056ZM224.202 37.0791C224.202 37.8605 224.133 38.7971 223.997 39.889C223.86 40.9822 223.597 42.0256 223.207 43.0206C222.816 44.0161 222.29 44.8558 221.627 45.5383C220.963 46.2202 220.084 46.5627 218.992 46.5627C217.548 46.5627 216.465 46.0355 215.743 44.9816C215.021 43.9284 214.504 42.6695 214.192 41.2062C213.879 39.7429 213.695 38.2502 213.636 36.728C213.578 35.2065 213.528 33.9973 213.49 33.0987C210.68 33.567 207.909 33.977 205.177 34.3281C205.099 35.2261 204.933 36.3383 204.68 37.6647C204.426 38.9917 204.036 40.2696 203.509 41.499C202.982 42.7278 202.299 43.7915 201.46 44.6895C200.62 45.5874 199.596 46.0355 198.387 46.0355C197.451 46.0355 196.719 45.6942 196.192 45.0111C195.665 44.3292 195.265 43.5183 194.992 42.5817C194.719 41.6451 194.553 40.6796 194.494 39.684C194.436 38.6891 194.406 37.8605 194.406 37.1963C194.406 34.972 194.582 32.7771 194.934 30.611C195.285 28.445 195.694 26.2894 196.163 24.1423C196.397 23.0111 196.709 21.6841 197.1 20.1619C197.489 18.6397 197.968 17.0697 198.534 15.4499C199.099 13.8307 199.763 12.23 200.524 10.6495C201.285 9.06897 202.152 7.65542 203.128 6.40575C204.104 5.15731 205.216 4.14334 206.465 3.36199C207.714 2.58125 209.1 2.19088 210.621 2.19088C212.104 2.19088 213.392 2.52294 214.485 3.18644C215.577 3.85056 216.533 4.72828 217.353 5.8202C218.173 6.91336 218.855 8.15259 219.402 9.53729C219.949 10.9232 220.406 12.3282 220.778 13.7522C221.148 15.1774 221.46 16.5719 221.714 17.9376L222.387 21.5669C222.894 24.1043 223.324 26.6693 223.675 29.2644C224.027 31.8607 224.202 34.4656 224.202 37.0791ZM254.701 22.211C255.949 20.0652 256.574 17.645 256.574 14.9524C256.574 13.1184 256.319 11.3728 255.812 9.71308C255.304 8.05463 254.544 6.59075 253.53 5.32267C252.514 4.0552 251.247 3.04982 249.725 2.30775C248.203 1.56691 246.447 1.19557 244.456 1.19557C243.675 1.19557 242.495 1.36252 240.915 1.69335C239.334 2.02541 237.714 2.4747 236.056 3.04C234.397 3.60591 232.875 4.2602 231.49 5.00104C230.105 5.7425 229.216 6.52262 228.827 7.34264C228.631 7.69311 228.494 8.16204 228.417 8.74698C228.338 9.33253 228.27 9.94693 228.213 10.5914C228.154 11.2347 228.124 11.8595 228.124 12.4641V13.9568C228.124 15.6748 228.154 17.3725 228.213 19.05C228.27 20.7281 228.3 22.4068 228.3 24.0837C228.3 25.9189 228.26 27.7234 228.183 29.4985C228.105 31.2748 228.066 33.0793 228.066 34.9133C228.066 35.772 228.085 36.9529 228.124 38.4549C228.162 39.9574 228.329 41.4311 228.622 42.8747C228.915 44.3184 229.413 45.5668 230.115 46.6207C230.817 47.6745 231.812 48.2012 233.1 48.2012C234.271 48.2012 235.188 47.6543 235.851 46.5624C236.514 45.4704 237.012 44.1827 237.344 42.6992C237.675 41.2163 237.89 39.7229 237.988 38.221C238.085 36.7191 238.153 35.5381 238.193 34.6795C238.896 34.4069 239.577 34.1227 240.242 33.8306C240.904 33.5378 241.588 33.2745 242.29 33.04C242.797 34.0559 243.334 35.4019 243.9 37.0794C244.466 38.7575 245.09 40.4067 245.774 42.0259C246.456 43.6456 247.237 45.0408 248.115 46.2113C248.993 47.3818 250.036 47.9673 251.247 47.9673C252.69 47.9673 253.714 47.4695 254.32 46.4746C254.925 45.479 255.227 44.3583 255.227 43.1086C255.227 41.9381 255.061 40.6602 254.73 39.2749C254.398 37.8896 253.968 36.5036 253.442 35.1183C252.915 33.7336 252.32 32.4164 251.656 31.1674C250.993 29.9183 250.349 28.8258 249.725 27.8891C251.792 26.2497 253.451 24.3574 254.701 22.211ZM284.758 36.5524C284.758 37.2939 284.563 38.0157 284.173 38.7185C283.782 39.3826 282.865 40.1621 281.421 41.0601C279.978 41.958 278.378 42.8069 276.622 43.6061C274.865 44.4064 273.168 45.0902 271.529 45.6549C269.89 46.2202 268.68 46.5037 267.9 46.5037C267.353 46.5037 266.709 46.3767 265.968 46.1232C265.226 45.8691 264.485 45.5481 263.744 45.1577C263.002 44.768 262.328 44.3187 261.724 43.8111C261.119 43.3047 260.68 42.8161 260.407 42.3478C260.25 42.0753 260.104 41.5278 259.968 40.7084C259.831 39.889 259.714 38.9333 259.617 37.8401C259.518 36.7482 259.431 35.5863 259.353 34.3575C259.274 33.1281 259.207 31.9576 259.148 30.8448C259.09 29.7326 259.05 28.7475 259.031 27.8888C259.011 27.0314 259.002 26.4059 259.002 26.0156C259.002 24.5725 259.05 22.9135 259.148 21.0402C259.245 19.1669 259.431 17.2844 259.704 15.3909C259.977 13.4986 260.377 11.6836 260.904 9.94724C261.431 8.21145 262.143 6.73775 263.041 5.52798C263.314 5.17628 263.86 4.80555 264.68 4.4158C265.5 4.02604 266.465 3.65409 267.578 3.303C268.69 2.95192 269.89 2.62109 271.178 2.30806C272.466 1.99625 273.704 1.73232 274.895 1.5175C276.084 1.3039 277.168 1.12836 278.144 0.990869C279.119 0.854609 279.86 0.786479 280.368 0.786479C280.954 0.786479 281.51 0.912919 282.036 1.16641C282.563 1.42113 283.011 1.76179 283.383 2.19082C283.753 2.62109 284.046 3.09861 284.261 3.62524C284.475 4.15187 284.583 4.70796 284.583 5.29351C284.583 5.80111 284.514 6.23015 284.378 6.58124C284.24 6.93232 284.035 7.32269 283.764 7.75234C283.373 8.25933 282.553 8.86452 281.305 9.56669C280.055 10.2695 278.7 10.9624 277.236 11.645C275.773 12.3281 274.368 12.9425 273.022 13.4888C271.676 14.0357 270.729 14.4254 270.182 14.6599C270.026 15.5579 269.861 16.465 269.685 17.3814C269.509 18.2984 269.382 19.2252 269.304 20.1619C270.514 19.5383 271.881 18.9527 273.402 18.4058C274.924 17.8596 276.367 17.5864 277.734 17.5864C280.504 17.5864 281.89 18.9527 281.89 21.6841C281.89 22.3482 281.763 22.9337 281.51 23.4401C281.256 23.9477 280.924 24.397 280.514 24.7868C280.105 25.1765 279.636 25.5178 279.11 25.8105C278.583 26.1039 278.065 26.3869 277.559 26.6594C276.309 27.3235 275.002 27.8987 273.636 28.3866C272.27 28.8752 270.904 29.3527 269.538 29.8204C269.46 30.1334 269.382 30.4747 269.304 30.8448C269.225 31.2168 269.187 31.5771 269.187 31.9282C269.187 32.475 269.225 33.0207 269.304 33.567C269.382 34.1139 269.46 34.6601 269.538 35.2064C270.007 35.0505 270.757 34.7964 271.792 34.4453C272.826 34.0942 273.909 33.7425 275.041 33.3914C276.173 33.0403 277.265 32.7384 278.319 32.4842C279.373 32.2308 280.153 32.1037 280.661 32.1037C281.246 32.1037 281.792 32.2308 282.3 32.4842C282.807 32.7384 283.237 33.0698 283.588 33.4792C283.938 33.8892 284.221 34.3673 284.437 34.9136C284.65 35.4605 284.758 36.0062 284.758 36.5524ZM312.33 38.7185C312.719 38.0157 312.915 37.2939 312.915 36.5524C312.915 36.0062 312.807 35.4605 312.593 34.9136C312.378 34.3673 312.095 33.8892 311.744 33.4792C311.393 33.0698 310.963 32.7384 310.456 32.4842C309.949 32.2308 309.403 32.1037 308.817 32.1037C308.31 32.1037 307.529 32.2308 306.476 32.4842C305.422 32.7384 304.329 33.0403 303.198 33.3914C302.065 33.7425 300.983 34.0942 299.949 34.4453C298.914 34.7964 298.164 35.0505 297.695 35.2064C297.634 34.7841 297.574 34.3618 297.514 33.9393L297.461 33.567C297.382 33.0207 297.344 32.475 297.344 31.9282C297.344 31.5771 297.382 31.2168 297.461 30.8448C297.539 30.4747 297.616 30.1334 297.695 29.8204C299.061 29.3527 300.426 28.8752 301.793 28.3866C303.158 27.8987 304.465 27.3235 305.715 26.6594C306.221 26.3869 306.739 26.1039 307.266 25.8105C307.793 25.5178 308.261 25.1765 308.671 24.7868C309.08 24.397 309.412 23.9477 309.666 23.4401C309.919 22.9337 310.047 22.3482 310.047 21.6841C310.047 18.9527 308.661 17.5864 305.891 17.5864C304.524 17.5864 303.081 17.8596 301.559 18.4058C300.037 18.9527 298.67 19.5383 297.461 20.1619C297.539 19.2252 297.666 18.2984 297.841 17.3814C298.018 16.465 298.183 15.5579 298.339 14.6599C298.885 14.4254 299.832 14.0357 301.178 13.4888C302.525 12.9425 303.929 12.3281 305.393 11.645C306.856 10.9624 308.212 10.2695 309.461 9.56669C310.709 8.86452 311.529 8.25933 311.92 7.75234C312.192 7.32269 312.397 6.93232 312.534 6.58124C312.671 6.23015 312.739 5.80111 312.739 5.29351C312.739 4.70796 312.631 4.15187 312.417 3.62524C312.203 3.09861 311.909 2.62109 311.539 2.19082C311.167 1.76179 310.72 1.42113 310.193 1.16641C309.666 0.912919 309.11 0.786479 308.525 0.786479C308.017 0.786479 307.275 0.854609 306.301 0.990869C305.325 1.12836 304.241 1.3039 303.051 1.5175C301.86 1.73232 300.622 1.99625 299.334 2.30806C298.046 2.62109 296.846 2.95192 295.734 3.303C294.621 3.65409 293.656 4.02604 292.837 4.4158C292.017 4.80555 291.47 5.17628 291.197 5.52798C290.299 6.73775 289.588 8.21145 289.061 9.94724C288.534 11.6836 288.134 13.4986 287.861 15.3909C287.587 17.2844 287.402 19.1669 287.305 21.0402C287.207 22.9135 287.158 24.5725 287.158 26.0156C287.158 26.4059 287.168 27.0314 287.188 27.8888C287.207 28.7475 287.246 29.7326 287.305 30.8448C287.363 31.9576 287.431 33.1281 287.51 34.3575C287.587 35.5863 287.675 36.7482 287.773 37.8401C287.87 38.9333 287.987 39.889 288.124 40.7084C288.26 41.5278 288.407 42.0753 288.563 42.3478C288.836 42.8161 289.275 43.3047 289.881 43.8111C290.485 44.3187 291.159 44.768 291.9 45.1577C292.641 45.5481 293.383 45.8691 294.124 46.1232C294.865 46.3767 295.51 46.5037 296.056 46.5037C296.837 46.5037 298.046 46.2202 299.685 45.6549C301.324 45.0902 303.022 44.4064 304.778 43.6061C306.534 42.8069 308.134 41.958 309.578 41.0601C311.021 40.1621 311.939 39.3826 312.33 38.7185ZM349.618 20.6303C349.618 21.4889 349.579 22.7085 349.501 24.289C349.422 25.8695 349.275 27.6059 349.062 29.4989C348.847 31.3924 348.544 33.324 348.154 35.2942C347.764 37.2651 347.256 39.05 346.632 40.6501C346.008 42.2509 345.247 43.5681 344.35 44.6017C343.451 45.6359 342.378 46.1527 341.13 46.1527C339.959 46.1527 338.885 45.8102 337.91 45.1283C336.935 44.4458 336.056 43.6061 335.276 42.6112C334.495 41.6156 333.813 40.5531 333.227 39.4207C332.642 38.2895 332.153 37.2547 331.764 36.3186C330.944 34.3281 330.125 32.3671 329.305 30.4355C328.486 28.5039 327.704 26.5422 326.964 24.5523V26.1918C326.964 27.8693 326.954 29.5381 326.935 31.196C326.914 32.8557 326.789 34.5037 326.554 36.1425C326.475 36.8066 326.387 37.5769 326.29 38.4552C326.193 39.3329 326.047 40.2021 325.851 41.0601C325.656 41.9188 325.373 42.7192 325.003 43.46C324.631 44.2015 324.133 44.7478 323.51 45.0988C323.159 45.2946 322.837 45.4119 322.544 45.4506C322.252 45.4892 321.93 45.5481 321.578 45.6261H321.403C320.504 45.6261 319.744 45.3241 319.12 44.7183C318.495 44.1137 317.969 43.3336 317.539 42.3767C317.109 41.421 316.768 40.3488 316.515 39.1574C316.26 37.9673 316.066 36.7962 315.93 35.6453C315.793 34.4945 315.704 33.4308 315.666 32.4548C315.627 31.4802 315.608 30.6988 315.608 30.1133C315.608 29.2159 315.645 27.8987 315.725 26.1623C315.803 24.4265 315.968 22.5035 316.222 20.3964C316.476 18.2887 316.808 16.1232 317.217 13.8982C317.627 11.6739 318.163 9.65453 318.827 7.84017C319.49 6.02521 320.291 4.5423 321.227 3.39084C322.164 2.2406 323.256 1.66425 324.505 1.66425C325.715 1.66425 326.797 2.13257 327.754 3.06921C328.71 4.00585 329.559 5.11803 330.3 6.40575C331.041 7.69348 331.666 9.04012 332.173 10.4445C332.68 11.8494 333.11 13.0205 333.462 13.9572C334.125 15.7918 334.769 17.6153 335.393 19.4303C336.017 21.2447 336.622 23.0891 337.208 24.9624C337.246 25.0409 337.325 25.2545 337.442 25.6056C337.559 25.9573 337.696 26.3477 337.852 26.7767C338.007 27.245 338.203 27.7717 338.437 28.3572C338.437 27.8508 338.427 27.4893 338.408 27.2745C338.387 27.0603 338.378 26.8645 338.378 26.6889V24.7279C338.34 23.4402 338.31 22.1518 338.291 20.8641C338.271 19.5764 338.262 18.3089 338.262 17.0599C338.262 16.513 338.271 15.7525 338.291 14.7766C338.31 13.8019 338.369 12.7572 338.467 11.645C338.563 10.5322 338.71 9.41147 338.905 8.27903C339.1 7.14721 339.382 6.1228 339.754 5.2058C340.124 4.28942 340.593 3.53753 341.159 2.95198C341.725 2.36643 342.418 2.07426 343.237 2.07426C344.212 2.07426 345.052 2.4456 345.754 3.18644C346.457 3.9279 347.042 4.87497 347.51 6.02521C347.978 7.17667 348.35 8.46439 348.623 9.88899C348.895 11.3136 349.11 12.7081 349.267 14.0738C349.422 15.4407 349.52 16.7082 349.559 17.8793C349.598 19.0498 349.618 19.9668 349.618 20.6303ZM381.61 39.889C381.747 38.7971 381.815 37.8605 381.815 37.0791C381.815 34.4656 381.64 31.8607 381.288 29.2644C380.937 26.6693 380.507 24.1043 380 21.5669L379.327 17.9376C379.073 16.5719 378.762 15.1774 378.391 13.7522C378.019 12.3282 377.562 10.9232 377.015 9.53729C376.468 8.15259 375.786 6.91336 374.966 5.8202C374.146 4.72828 373.19 3.85056 372.098 3.18644C371.005 2.52294 369.717 2.19088 368.234 2.19088C366.712 2.19088 365.327 2.58125 364.079 3.36199C362.829 4.14334 361.717 5.15731 360.741 6.40575C359.765 7.65542 358.898 9.06897 358.136 10.6495C357.376 12.23 356.712 13.8307 356.147 15.4499C355.581 17.0697 355.102 18.6397 354.712 20.1619C354.322 21.6841 354.009 23.0111 353.776 24.1423C353.307 26.2894 352.898 28.445 352.547 30.611C352.195 32.7771 352.019 34.972 352.019 37.1963C352.019 37.8605 352.049 38.6891 352.107 39.684C352.166 40.6796 352.331 41.6451 352.604 42.5817C352.878 43.5183 353.278 44.3292 353.804 45.0111C354.332 45.6942 355.063 46.0355 356 46.0355C357.209 46.0355 358.233 45.5874 359.073 44.6895C359.912 43.7915 360.595 42.7278 361.122 41.499C361.649 40.2696 362.039 38.9917 362.293 37.6647C362.547 36.3383 362.712 35.2261 362.79 34.3281C365.521 33.977 368.293 33.567 371.103 33.0987C371.141 33.9973 371.19 35.2065 371.249 36.728C371.308 38.2502 371.492 39.7429 371.805 41.2062C372.117 42.6695 372.633 43.9284 373.357 44.9816C374.078 46.0355 375.161 46.5627 376.605 46.5627C377.697 46.5627 378.576 46.2202 379.24 45.5383C379.903 44.8558 380.429 44.0161 380.82 43.0206C381.209 42.0256 381.473 40.9822 381.61 39.889ZM47.8646 22.9718C47.8646 22.5035 47.8357 21.7332 47.7768 20.6597C47.7185 19.5868 47.5908 18.5139 47.3963 17.4397C47.2005 16.3674 46.8985 15.4112 46.4891 14.5715C46.0791 13.7331 45.523 13.3132 44.8208 13.3132C44.4298 13.3132 44.0597 13.5766 43.7086 14.1032C43.3576 14.6304 43.0445 15.2939 42.772 16.0937C42.4982 16.8941 42.254 17.7816 42.0404 18.7569C41.8249 19.7328 41.6396 20.6701 41.4837 21.5668C41.3278 22.4648 41.2105 23.2744 41.1326 23.9962C41.054 24.7186 40.9957 25.2354 40.957 25.5472C43.2986 25.3527 45.6009 25.0599 47.8646 24.6695V22.9718ZM212.816 20.5425C212.875 21.6166 212.905 22.3863 212.905 22.8546V24.5523C210.641 24.9427 208.339 25.2355 205.997 25.4301C206.036 25.1183 206.094 24.6021 206.173 23.879C206.25 23.1572 206.368 22.3482 206.524 21.4497C206.679 20.5523 206.865 19.6157 207.08 18.6397C207.294 17.6651 207.538 16.7769 207.812 15.9765C208.084 15.1774 208.397 14.5133 208.749 13.986C209.1 13.4594 209.47 13.1961 209.86 13.1961C210.563 13.1961 211.119 13.6159 211.529 14.4543C211.939 15.2946 212.241 16.2497 212.436 17.3232C212.631 18.3967 212.758 19.4696 212.816 20.5425ZM245.744 15.7718C245.744 14.7572 245.51 13.9863 245.041 13.459C244.574 12.933 243.813 12.6691 242.759 12.6691C241.977 12.6691 241.187 12.8066 240.388 13.0791C239.588 13.3522 238.856 13.664 238.193 14.0157C238.348 17.0988 238.407 20.1622 238.368 23.2059C239.188 22.9334 240.027 22.5823 240.885 22.1521C241.743 21.723 242.534 21.1964 243.256 20.5716C243.978 19.948 244.574 19.2458 245.041 18.4644C245.51 17.6843 245.744 16.787 245.744 15.7718ZM370.429 20.5425C370.488 21.6166 370.517 22.3863 370.517 22.8546V24.5523C368.253 24.9427 365.952 25.2355 363.61 25.4301C363.648 25.1183 363.707 24.6021 363.785 23.879C363.863 23.1572 363.981 22.3482 364.136 21.4497C364.292 20.5523 364.478 19.6157 364.693 18.6397C364.907 17.6651 365.151 16.7769 365.425 15.9765C365.696 15.1774 366.01 14.5133 366.361 13.986C366.712 13.4594 367.083 13.1961 367.473 13.1961C368.176 13.1961 368.732 13.6159 369.142 14.4543C369.552 15.2946 369.853 16.2497 370.049 17.3232C370.244 18.3967 370.371 19.4696 370.429 20.5425Z" fill="#FEB500"/>
<path fill-rule="evenodd" clip-rule="evenodd" d="M81.5236 4.76652C81.5236 5.66448 81.24 6.44522 80.6747 7.10811C80.1088 7.77223 79.4355 8.3185 78.6554 8.74692C77.9532 9.17718 77.2302 9.63568 76.4893 10.123C75.7472 10.611 75.0647 11.1573 74.4405 11.7618C73.8157 12.367 73.3081 13.0404 72.9183 13.7818C72.5279 14.5233 72.3334 15.3617 72.3334 16.2983C72.3334 17.1184 72.5279 17.8598 72.9183 18.5233C73.3081 19.1868 73.7868 19.8399 74.3527 20.4837C74.918 21.1276 75.5428 21.7917 76.226 22.4743C76.9085 23.1574 77.5334 23.9185 78.0993 24.7569C78.6646 25.5972 79.1427 26.5424 79.5331 27.5963C79.9234 28.6502 80.1186 29.8796 80.1186 31.2839C80.1186 32.2598 79.9136 33.3622 79.5042 34.5916C79.0942 35.821 78.5381 37.0603 77.836 38.3087C77.1332 39.5578 76.3039 40.7669 75.3477 41.938C74.3914 43.1085 73.3768 44.1532 72.3039 45.0696C71.2304 45.986 70.109 46.728 68.9379 47.2939C67.7674 47.8598 66.635 48.1428 65.543 48.1428C64.3327 48.1428 63.2598 47.8107 62.3231 47.1479C61.3865 46.4837 60.9182 45.4894 60.9182 44.1624C60.9182 43.265 61.1324 42.4358 61.5626 41.6747C61.9911 40.9136 62.5183 40.182 63.1431 39.4792C63.7667 38.777 64.4597 38.0945 65.2208 37.4304C65.9819 36.7675 66.6742 36.104 67.2991 35.4405C67.9227 34.7776 68.4499 34.0846 68.8796 33.3622C69.3086 32.641 69.5234 31.8695 69.5234 31.0501C69.5234 29.9189 69.1226 28.7576 68.3235 27.5668C67.5231 26.3767 66.635 25.1479 65.6597 23.8792C64.6837 22.6111 63.7962 21.3136 62.9964 19.9866C62.1961 18.6602 61.7965 17.3135 61.7965 15.9472C61.7965 14.2698 62.2446 12.5033 63.1431 10.6497C64.0399 8.79664 65.192 7.0989 66.5969 5.55707C68.0013 4.01585 69.5818 2.73795 71.3378 1.72275C73.0945 0.708773 74.8302 0.201172 76.5482 0.201172C77.9133 0.201172 79.0844 0.610567 80.0603 1.42997C81.0356 2.24938 81.5236 3.36156 81.5236 4.76652ZM58.9575 40.0062C59.0938 38.9143 59.1626 37.9776 59.1626 37.1963C59.1626 34.5822 58.987 31.9773 58.6353 29.3816C58.2842 26.7871 57.8546 24.2215 57.3476 21.6841C57.1518 20.6302 56.9278 19.421 56.6749 18.0547C56.4202 16.6891 56.1083 15.2939 55.7382 13.8693C55.3669 12.4454 54.9084 11.0404 54.3621 9.65446C53.8152 8.26976 53.1327 7.03053 52.3133 5.93737C51.4939 4.84545 50.537 3.96712 49.4451 3.303C48.3519 2.64011 47.0642 2.30806 45.5819 2.30806C44.0597 2.30806 42.6738 2.69842 41.4254 3.47855C40.1763 4.2599 39.0641 5.27448 38.0888 6.52293C37.1129 7.77198 36.245 9.18615 35.4839 10.7666C34.7228 12.3471 34.0587 13.9479 33.4934 15.5671C32.9275 17.1868 32.4493 18.7569 32.0596 20.2791C31.6686 21.8013 31.3568 23.1283 31.123 24.2595C30.6546 26.4065 30.2446 28.5622 29.8935 30.7282C29.5424 32.8943 29.3669 35.0892 29.3669 37.3135C29.3669 37.9776 29.3964 38.8062 29.4547 39.8012C29.513 40.7968 29.6787 41.7622 29.9518 42.6989C30.225 43.6355 30.6252 44.4457 31.1518 45.1282C31.679 45.8114 32.4107 46.1527 33.3473 46.1527C34.5565 46.1527 35.5809 45.7046 36.4205 44.806C37.259 43.9093 37.9421 42.845 38.4694 41.6162C38.996 40.3867 39.3864 39.1088 39.6405 37.7818C39.8933 36.4554 40.0591 35.3433 40.1376 34.4453C42.869 34.0942 45.6402 33.6842 48.4501 33.2159C48.4888 34.1139 48.5379 35.323 48.5962 36.8452C48.6551 38.3674 48.8399 39.8601 49.1523 41.3234C49.4641 42.7867 49.9809 44.0455 50.7034 45.0988C51.4252 46.1527 52.5079 46.6793 53.9521 46.6793C55.0447 46.6793 55.9224 46.3374 56.5865 45.6549C57.25 44.9723 57.7766 44.1333 58.167 43.1377C58.5567 42.1428 58.8207 41.0994 58.9575 40.0062ZM26.9374 40.5328C27.7372 39.6747 28.1374 38.7577 28.1374 37.7818C28.1374 36.9624 27.971 36.3093 27.6396 35.8207C27.3075 35.3334 26.8791 34.9627 26.3519 34.7085C25.8252 34.4551 25.22 34.2899 24.5375 34.2108C23.8538 34.1334 23.181 34.0942 22.5182 34.0942C20.6443 34.0942 18.6734 34.3384 16.6056 34.8258C14.5365 35.3137 12.6251 35.8306 10.8691 36.3768V34.0942C10.8691 31.0498 10.9366 28.0355 11.0741 25.05C11.2098 22.0646 11.2785 19.0496 11.2785 16.0059V13.957C11.2785 13.099 11.2392 12.1623 11.1619 11.1471C11.0827 10.1332 10.9569 9.10875 10.7813 8.0739C10.6058 7.04029 10.3511 6.10365 10.0202 5.26399C9.68818 4.42556 9.24932 3.7418 8.70305 3.21517C8.15617 2.68854 7.49267 2.42523 6.71254 2.42523C5.58072 2.42523 4.64408 2.95186 3.90324 4.00573C3.47298 4.66984 3.07341 5.58623 2.70329 6.75672C2.33195 7.92782 2.01953 9.24439 1.76665 10.7083C1.51255 12.1715 1.2879 13.7226 1.09333 15.362C0.897533 17.0008 0.742245 18.6108 0.625012 20.1913C0.507778 21.7718 0.420007 23.2553 0.361697 24.64C0.302774 26.0259 0.273926 27.2062 0.273926 28.1815C0.273926 28.7671 0.302774 29.5865 0.361697 30.6404C0.420007 31.6942 0.497958 32.8457 0.59555 34.0942C0.692528 35.3432 0.819582 36.6211 0.976097 37.9279C1.13139 39.2358 1.31736 40.4554 1.53219 41.5866C1.7464 42.7191 1.97105 43.6938 2.20551 44.5138C2.43936 45.3332 2.7125 45.8598 3.02492 46.0937C3.57119 46.5626 4.26354 46.864 5.1032 47.0015C5.94163 47.1377 6.73157 47.2059 7.47364 47.2059C8.25376 47.2059 9.31745 47.1083 10.6641 46.9137C12.0107 46.7179 13.4446 46.4349 14.9667 46.0648C16.4883 45.6947 18.0295 45.2454 19.591 44.7182C21.1513 44.1915 22.566 43.5771 23.8347 42.8744C25.1028 42.1722 26.137 41.3921 26.9374 40.5328ZM110.544 8.54222C111.305 7.74307 111.686 6.85492 111.686 5.879C111.686 4.9037 111.442 4.1426 110.954 3.59572C110.466 3.05006 109.851 2.64005 109.11 2.3663C108.368 2.09378 107.578 1.92745 106.739 1.86914C105.9 1.81083 105.109 1.78136 104.369 1.78136C103.587 1.78136 102.486 1.83967 101.061 1.95691C99.6359 2.07414 98.0757 2.26012 96.3786 2.513C94.6802 2.76711 92.9628 3.11819 91.2271 3.56626C89.49 4.01555 87.9095 4.56182 86.4855 5.20568C85.0603 5.84954 83.8905 6.61064 82.9735 7.48896C82.0565 8.36668 81.5974 9.39109 81.5974 10.5616C81.5974 11.2644 81.8521 11.8401 82.3585 12.2888C82.8661 12.7381 83.4706 13.0892 84.1734 13.3426C84.8756 13.5968 85.6072 13.7723 86.3683 13.8693C87.1294 13.9669 87.7438 14.0154 88.2121 14.0154C88.7977 14.0154 89.3728 13.9963 89.9393 13.957C90.5046 13.9184 91.0601 13.8601 91.6076 13.7815C91.6076 15.772 91.5972 17.7232 91.5781 19.6352C91.5585 21.5477 91.5487 23.499 91.5487 25.4889C91.5487 27.8697 91.5683 30.2402 91.6076 32.6014C91.6463 34.9627 91.7046 37.3135 91.7831 39.6551C91.7831 40.3965 91.8415 41.2263 91.9587 42.1427C92.0759 43.0603 92.2999 43.9282 92.632 44.7476C92.9628 45.567 93.4312 46.2594 94.037 46.8259C94.6409 47.3912 95.4505 47.6748 96.4663 47.6748C97.3238 47.6748 98.0462 47.4207 98.6318 46.9137C99.2173 46.4061 99.6758 45.7825 100.008 45.0404C100.339 44.2996 100.573 43.509 100.71 42.6694C100.846 41.8309 100.915 41.06 100.915 40.3572C100.915 38.797 100.876 37.2355 100.798 35.674C100.719 34.1138 100.681 32.5333 100.681 30.9325C100.681 27.9281 100.768 24.9328 100.945 21.9473C101.12 18.9619 101.363 15.9672 101.676 12.9621C102.416 12.8062 103.353 12.5331 104.486 12.1427C105.617 11.7523 106.719 11.2552 107.793 10.6494C108.866 10.0454 109.783 9.3426 110.544 8.54222ZM136.314 36.6696C136.314 37.411 136.118 38.1329 135.728 38.8357C135.338 39.4992 134.42 40.2799 132.977 41.1766C131.533 42.0752 129.933 42.9235 128.177 43.7232C126.421 44.5236 124.723 45.2068 123.084 45.772C121.446 46.3373 120.235 46.6209 119.455 46.6209C118.908 46.6209 118.264 46.4939 117.524 46.2404C116.782 45.9863 116.039 45.6653 115.299 45.2749C114.557 44.8845 113.884 44.4358 113.279 43.9282C112.674 43.4212 112.235 42.9333 111.963 42.4644C111.806 42.1924 111.66 41.645 111.523 40.8255C111.386 40.0061 111.269 39.0505 111.172 37.9573C111.074 36.8654 110.987 35.7035 110.909 34.4741C110.83 33.2453 110.763 32.0742 110.704 30.962C110.645 29.8498 110.606 28.8647 110.586 28.006C110.566 27.1479 110.558 26.5237 110.558 26.1327C110.558 24.6891 110.606 23.03 110.704 21.1574C110.801 19.2841 110.987 17.4016 111.26 15.5081C111.532 13.6158 111.933 11.8014 112.46 10.0644C112.987 8.32801 113.698 6.85492 114.596 5.64454C114.869 5.29345 115.416 4.92334 116.236 4.53236C117.055 4.1426 118.021 3.77126 119.133 3.42017C120.245 3.06909 121.446 2.73764 122.733 2.42523C124.021 2.11342 125.259 1.8495 126.45 1.63467C127.641 1.42046 128.723 1.24492 129.699 1.10804C130.674 0.971781 131.417 0.903037 131.924 0.903037C132.509 0.903037 133.065 1.0307 133.592 1.28358C134.118 1.53769 134.567 1.87896 134.938 2.30799C135.309 2.73764 135.601 3.21517 135.816 3.74241C136.03 4.26904 136.138 4.82513 136.138 5.41068C136.138 5.91828 136.07 6.34732 135.933 6.69841C135.796 7.04949 135.591 7.43986 135.318 7.8689C134.929 8.3765 134.109 8.98108 132.86 9.68386C131.611 10.386 130.255 11.0796 128.792 11.7615C127.328 12.4453 125.923 13.0597 124.577 13.606C123.231 14.1522 122.285 14.5426 121.738 14.7765C121.582 15.6744 121.416 16.5816 121.241 17.4986C121.065 18.4162 120.938 19.3424 120.86 20.279C122.069 19.6554 123.435 19.0699 124.958 18.523C126.48 17.9767 127.923 17.7036 129.289 17.7036C132.06 17.7036 133.446 19.0699 133.446 21.8012C133.446 22.4647 133.319 23.0503 133.065 23.5573C132.81 24.0649 132.48 24.5136 132.07 24.9033C131.66 25.2943 131.192 25.6349 130.665 25.9277C130.138 26.2205 129.621 26.5041 129.114 26.7766C127.864 27.4407 126.557 28.0158 125.192 28.5038C123.825 28.9917 122.46 29.4693 121.095 29.9376C121.015 30.2506 120.938 30.5919 120.86 30.962C120.781 31.3333 120.743 31.6942 120.743 32.0453C120.743 32.5916 120.781 33.1385 120.86 33.6841L120.91 34.032L120.911 34.0401C120.972 34.4681 121.033 34.8957 121.095 35.3229C121.562 35.1677 122.313 34.9136 123.348 34.5619C124.381 34.2108 125.464 33.8597 126.596 33.5086C127.728 33.1575 128.821 32.8555 129.875 32.6014C130.929 32.3479 131.709 32.2203 132.216 32.2203C132.802 32.2203 133.348 32.3479 133.855 32.6014C134.362 32.8555 134.792 33.1864 135.143 33.5964C135.495 34.0064 135.777 34.4845 135.992 35.0308C136.206 35.5777 136.314 36.1233 136.314 36.6696ZM171.978 24.4056C172.056 22.8257 172.095 21.6061 172.095 20.7474C172.095 20.0839 172.074 19.1669 172.036 17.9964C171.997 16.8253 171.899 15.5572 171.743 14.191C171.587 12.8259 171.372 11.4308 171.1 10.0062C170.826 8.58156 170.456 7.29384 169.987 6.14238C169.519 4.99153 168.934 4.04507 168.231 3.303C167.529 2.56216 166.689 2.19082 165.714 2.19082C164.895 2.19082 164.201 2.4836 163.636 3.06915C163.07 3.65409 162.602 4.40598 162.231 5.32297C161.86 6.23997 161.577 7.26438 161.382 8.39559C161.186 9.52802 161.04 10.6494 160.943 11.7616C160.846 12.8738 160.787 13.9184 160.768 14.8937C160.748 15.8697 160.738 16.6308 160.738 17.1764C160.738 18.4261 160.748 19.6936 160.768 20.9813C160.787 22.269 160.816 23.5573 160.856 24.8451V26.8061C160.856 26.9817 160.865 27.1775 160.885 27.3917C160.904 27.6065 160.914 27.9674 160.914 28.4744C160.68 27.8888 160.484 27.3622 160.329 26.8939C160.172 26.4648 160.036 26.0745 159.919 25.7228C159.802 25.3717 159.723 25.1581 159.684 25.0789C159.099 23.2056 158.494 21.3618 157.87 19.5475C157.246 17.7325 156.601 15.9089 155.938 14.0737C155.587 13.1377 155.157 11.9666 154.651 10.5616C154.143 9.15668 153.518 7.81065 152.777 6.52293C152.035 5.2352 151.187 4.12302 150.231 3.18638C149.274 2.24975 148.191 1.78143 146.982 1.78143C145.732 1.78143 144.641 2.35777 143.704 3.50801C142.767 4.66008 141.967 6.14238 141.304 7.95673C140.64 9.7717 140.104 11.7911 139.694 14.0154C139.285 16.2398 138.953 18.4058 138.699 20.5136C138.444 22.6207 138.279 24.5431 138.201 26.2795C138.123 28.0159 138.084 29.3331 138.084 30.2304C138.084 30.816 138.104 31.5967 138.143 32.572C138.181 33.5479 138.269 34.6116 138.406 35.7619C138.543 36.9139 138.737 38.0844 138.992 39.2746C139.245 40.4653 139.586 41.5382 140.016 42.4939C140.445 43.4508 140.972 44.2309 141.597 44.8355C142.22 45.4407 142.981 45.7426 143.879 45.7426H144.055C144.407 45.6653 144.728 45.6064 145.021 45.5671C145.314 45.529 145.636 45.4118 145.987 45.216C146.611 44.8649 147.109 44.3187 147.479 43.5772C147.85 42.8358 148.132 42.036 148.328 41.1767C148.523 40.3186 148.669 39.4501 148.768 38.5724C148.864 37.6941 148.952 36.9238 149.031 36.2596C149.265 34.6208 149.391 32.9722 149.411 31.3131C149.431 29.6553 149.441 27.987 149.441 26.3083V24.6695C150.181 26.6594 150.963 28.6205 151.782 30.5527C152.602 32.4842 153.421 34.4453 154.241 36.4358C154.63 37.3718 155.119 38.4067 155.704 39.5379C156.29 40.6703 156.971 41.7328 157.753 42.7283C158.534 43.7233 159.411 44.563 160.387 45.2455C161.362 45.9274 162.436 46.2699 163.607 46.2699C164.856 46.2699 165.928 45.7531 166.826 44.7182C167.724 43.6846 168.485 42.368 169.109 40.7673C169.733 39.1678 170.241 37.3823 170.631 35.4108C171.02 33.4405 171.324 31.5089 171.538 29.616C171.752 27.7237 171.899 25.9867 171.978 24.4056ZM224.202 37.0791C224.202 37.8605 224.133 38.7971 223.997 39.889C223.86 40.9822 223.597 42.0256 223.207 43.0206C222.816 44.0161 222.29 44.8558 221.627 45.5383C220.963 46.2202 220.084 46.5627 218.992 46.5627C217.548 46.5627 216.465 46.0355 215.743 44.9816C215.021 43.9284 214.504 42.6695 214.192 41.2062C213.879 39.7429 213.695 38.2502 213.636 36.728C213.578 35.2065 213.528 33.9973 213.49 33.0987C210.68 33.567 207.909 33.977 205.177 34.3281C205.099 35.2261 204.933 36.3383 204.68 37.6647C204.426 38.9917 204.036 40.2696 203.509 41.499C202.982 42.7278 202.299 43.7915 201.46 44.6895C200.62 45.5874 199.596 46.0355 198.387 46.0355C197.451 46.0355 196.719 45.6942 196.192 45.0111C195.665 44.3292 195.265 43.5183 194.992 42.5817C194.719 41.6451 194.553 40.6796 194.494 39.684C194.436 38.6891 194.406 37.8605 194.406 37.1963C194.406 34.972 194.582 32.7771 194.934 30.611C195.285 28.445 195.694 26.2894 196.163 24.1423C196.397 23.0111 196.709 21.6841 197.1 20.1619C197.489 18.6397 197.968 17.0697 198.534 15.4499C199.099 13.8307 199.763 12.23 200.524 10.6495C201.285 9.06897 202.152 7.65542 203.128 6.40575C204.104 5.15731 205.216 4.14334 206.465 3.36199C207.714 2.58125 209.1 2.19088 210.621 2.19088C212.104 2.19088 213.392 2.52294 214.485 3.18644C215.577 3.85056 216.533 4.72828 217.353 5.8202C218.173 6.91336 218.855 8.15259 219.402 9.53729C219.949 10.9232 220.406 12.3282 220.778 13.7522C221.148 15.1774 221.46 16.5719 221.714 17.9376L222.387 21.5669C222.894 24.1043 223.324 26.6693 223.675 29.2644C224.027 31.8607 224.202 34.4656 224.202 37.0791ZM254.701 22.211C255.949 20.0652 256.574 17.645 256.574 14.9524C256.574 13.1184 256.319 11.3728 255.812 9.71308C255.304 8.05463 254.544 6.59075 253.53 5.32267C252.514 4.0552 251.247 3.04982 249.725 2.30775C248.203 1.56691 246.447 1.19557 244.456 1.19557C243.675 1.19557 242.495 1.36252 240.915 1.69335C239.334 2.02541 237.714 2.4747 236.056 3.04C234.397 3.60591 232.875 4.2602 231.49 5.00104C230.105 5.7425 229.216 6.52262 228.827 7.34264C228.631 7.69311 228.494 8.16204 228.417 8.74698C228.338 9.33253 228.27 9.94693 228.213 10.5914C228.154 11.2347 228.124 11.8595 228.124 12.4641V13.9568C228.124 15.6748 228.154 17.3725 228.213 19.05C228.27 20.7281 228.3 22.4068 228.3 24.0837C228.3 25.9189 228.26 27.7234 228.183 29.4985C228.105 31.2748 228.066 33.0793 228.066 34.9133C228.066 35.772 228.085 36.9529 228.124 38.4549C228.162 39.9574 228.329 41.4311 228.622 42.8747C228.915 44.3184 229.413 45.5668 230.115 46.6207C230.817 47.6745 231.812 48.2012 233.1 48.2012C234.271 48.2012 235.188 47.6543 235.851 46.5624C236.514 45.4704 237.012 44.1827 237.344 42.6992C237.675 41.2163 237.89 39.7229 237.988 38.221C238.085 36.7191 238.153 35.5381 238.193 34.6795C238.896 34.4069 239.577 34.1227 240.242 33.8306C240.904 33.5378 241.588 33.2745 242.29 33.04C242.797 34.0559 243.334 35.4019 243.9 37.0794C244.466 38.7575 245.09 40.4067 245.774 42.0259C246.456 43.6456 247.237 45.0408 248.115 46.2113C248.993 47.3818 250.036 47.9673 251.247 47.9673C252.69 47.9673 253.714 47.4695 254.32 46.4746C254.925 45.479 255.227 44.3583 255.227 43.1086C255.227 41.9381 255.061 40.6602 254.73 39.2749C254.398 37.8896 253.968 36.5036 253.442 35.1183C252.915 33.7336 252.32 32.4164 251.656 31.1674C250.993 29.9183 250.349 28.8258 249.725 27.8891C251.792 26.2497 253.451 24.3574 254.701 22.211ZM284.758 36.5524C284.758 37.2939 284.563 38.0157 284.173 38.7185C283.782 39.3826 282.865 40.1621 281.421 41.0601C279.978 41.958 278.378 42.8069 276.622 43.6061C274.865 44.4064 273.168 45.0902 271.529 45.6549C269.89 46.2202 268.68 46.5037 267.9 46.5037C267.353 46.5037 266.709 46.3767 265.968 46.1232C265.226 45.8691 264.485 45.5481 263.744 45.1577C263.002 44.768 262.328 44.3187 261.724 43.8111C261.119 43.3047 260.68 42.8161 260.407 42.3478C260.25 42.0753 260.104 41.5278 259.968 40.7084C259.831 39.889 259.714 38.9333 259.617 37.8401C259.518 36.7482 259.431 35.5863 259.353 34.3575C259.274 33.1281 259.207 31.9576 259.148 30.8448C259.09 29.7326 259.05 28.7475 259.031 27.8888C259.011 27.0314 259.002 26.4059 259.002 26.0156C259.002 24.5725 259.05 22.9135 259.148 21.0402C259.245 19.1669 259.431 17.2844 259.704 15.3909C259.977 13.4986 260.377 11.6836 260.904 9.94724C261.431 8.21145 262.143 6.73775 263.041 5.52798C263.314 5.17628 263.86 4.80555 264.68 4.4158C265.5 4.02604 266.465 3.65409 267.578 3.303C268.69 2.95192 269.89 2.62109 271.178 2.30806C272.466 1.99625 273.704 1.73232 274.895 1.5175C276.084 1.3039 277.168 1.12836 278.144 0.990869C279.119 0.854609 279.86 0.786479 280.368 0.786479C280.954 0.786479 281.51 0.912919 282.036 1.16641C282.563 1.42113 283.011 1.76179 283.383 2.19082C283.753 2.62109 284.046 3.09861 284.261 3.62524C284.475 4.15187 284.583 4.70796 284.583 5.29351C284.583 5.80111 284.514 6.23015 284.378 6.58124C284.24 6.93232 284.035 7.32269 283.764 7.75234C283.373 8.25933 282.553 8.86452 281.305 9.56669C280.055 10.2695 278.7 10.9624 277.236 11.645C275.773 12.3281 274.368 12.9425 273.022 13.4888C271.676 14.0357 270.729 14.4254 270.182 14.6599C270.026 15.5579 269.861 16.465 269.685 17.3814C269.509 18.2984 269.382 19.2252 269.304 20.1619C270.514 19.5383 271.881 18.9527 273.402 18.4058C274.924 17.8596 276.367 17.5864 277.734 17.5864C280.504 17.5864 281.89 18.9527 281.89 21.6841C281.89 22.3482 281.763 22.9337 281.51 23.4401C281.256 23.9477 280.924 24.397 280.514 24.7868C280.105 25.1765 279.636 25.5178 279.11 25.8105C278.583 26.1039 278.065 26.3869 277.559 26.6594C276.309 27.3235 275.002 27.8987 273.636 28.3866C272.27 28.8752 270.904 29.3527 269.538 29.8204C269.46 30.1334 269.382 30.4747 269.304 30.8448C269.225 31.2168 269.187 31.5771 269.187 31.9282C269.187 32.475 269.225 33.0207 269.304 33.567C269.382 34.1139 269.46 34.6601 269.538 35.2064C270.007 35.0505 270.757 34.7964 271.792 34.4453C272.826 34.0942 273.909 33.7425 275.041 33.3914C276.173 33.0403 277.265 32.7384 278.319 32.4842C279.373 32.2308 280.153 32.1037 280.661 32.1037C281.246 32.1037 281.792 32.2308 282.3 32.4842C282.807 32.7384 283.237 33.0698 283.588 33.4792C283.938 33.8892 284.221 34.3673 284.437 34.9136C284.65 35.4605 284.758 36.0062 284.758 36.5524ZM312.33 38.7185C312.719 38.0157 312.915 37.2939 312.915 36.5524C312.915 36.0062 312.807 35.4605 312.593 34.9136C312.378 34.3673 312.095 33.8892 311.744 33.4792C311.393 33.0698 310.963 32.7384 310.456 32.4842C309.949 32.2308 309.403 32.1037 308.817 32.1037C308.31 32.1037 307.529 32.2308 306.476 32.4842C305.422 32.7384 304.329 33.0403 303.198 33.3914C302.065 33.7425 300.983 34.0942 299.949 34.4453C298.914 34.7964 298.164 35.0505 297.695 35.2064C297.634 34.7841 297.574 34.3618 297.514 33.9393L297.461 33.567C297.382 33.0207 297.344 32.475 297.344 31.9282C297.344 31.5771 297.382 31.2168 297.461 30.8448C297.539 30.4747 297.616 30.1334 297.695 29.8204C299.061 29.3527 300.426 28.8752 301.793 28.3866C303.158 27.8987 304.465 27.3235 305.715 26.6594C306.221 26.3869 306.739 26.1039 307.266 25.8105C307.793 25.5178 308.261 25.1765 308.671 24.7868C309.08 24.397 309.412 23.9477 309.666 23.4401C309.919 22.9337 310.047 22.3482 310.047 21.6841C310.047 18.9527 308.661 17.5864 305.891 17.5864C304.524 17.5864 303.081 17.8596 301.559 18.4058C300.037 18.9527 298.67 19.5383 297.461 20.1619C297.539 19.2252 297.666 18.2984 297.841 17.3814C298.018 16.465 298.183 15.5579 298.339 14.6599C298.885 14.4254 299.832 14.0357 301.178 13.4888C302.525 12.9425 303.929 12.3281 305.393 11.645C306.856 10.9624 308.212 10.2695 309.461 9.56669C310.709 8.86452 311.529 8.25933 311.92 7.75234C312.192 7.32269 312.397 6.93232 312.534 6.58124C312.671 6.23015 312.739 5.80111 312.739 5.29351C312.739 4.70796 312.631 4.15187 312.417 3.62524C312.203 3.09861 311.909 2.62109 311.539 2.19082C311.167 1.76179 310.72 1.42113 310.193 1.16641C309.666 0.912919 309.11 0.786479 308.525 0.786479C308.017 0.786479 307.275 0.854609 306.301 0.990869C305.325 1.12836 304.241 1.3039 303.051 1.5175C301.86 1.73232 300.622 1.99625 299.334 2.30806C298.046 2.62109 296.846 2.95192 295.734 3.303C294.621 3.65409 293.656 4.02604 292.837 4.4158C292.017 4.80555 291.47 5.17628 291.197 5.52798C290.299 6.73775 289.588 8.21145 289.061 9.94724C288.534 11.6836 288.134 13.4986 287.861 15.3909C287.587 17.2844 287.402 19.1669 287.305 21.0402C287.207 22.9135 287.158 24.5725 287.158 26.0156C287.158 26.4059 287.168 27.0314 287.188 27.8888C287.207 28.7475 287.246 29.7326 287.305 30.8448C287.363 31.9576 287.431 33.1281 287.51 34.3575C287.587 35.5863 287.675 36.7482 287.773 37.8401C287.87 38.9333 287.987 39.889 288.124 40.7084C288.26 41.5278 288.407 42.0753 288.563 42.3478C288.836 42.8161 289.275 43.3047 289.881 43.8111C290.485 44.3187 291.159 44.768 291.9 45.1577C292.641 45.5481 293.383 45.8691 294.124 46.1232C294.865 46.3767 295.51 46.5037 296.056 46.5037C296.837 46.5037 298.046 46.2202 299.685 45.6549C301.324 45.0902 303.022 44.4064 304.778 43.6061C306.534 42.8069 308.134 41.958 309.578 41.0601C311.021 40.1621 311.939 39.3826 312.33 38.7185ZM349.618 20.6303C349.618 21.4889 349.579 22.7085 349.501 24.289C349.422 25.8695 349.275 27.6059 349.062 29.4989C348.847 31.3924 348.544 33.324 348.154 35.2942C347.764 37.2651 347.256 39.05 346.632 40.6501C346.008 42.2509 345.247 43.5681 344.35 44.6017C343.451 45.6359 342.378 46.1527 341.13 46.1527C339.959 46.1527 338.885 45.8102 337.91 45.1283C336.935 44.4458 336.056 43.6061 335.276 42.6112C334.495 41.6156 333.813 40.5531 333.227 39.4207C332.642 38.2895 332.153 37.2547 331.764 36.3186C330.944 34.3281 330.125 32.3671 329.305 30.4355C328.486 28.5039 327.704 26.5422 326.964 24.5523V26.1918C326.964 27.8693 326.954 29.5381 326.935 31.196C326.914 32.8557 326.789 34.5037 326.554 36.1425C326.475 36.8066 326.387 37.5769 326.29 38.4552C326.193 39.3329 326.047 40.2021 325.851 41.0601C325.656 41.9188 325.373 42.7192 325.003 43.46C324.631 44.2015 324.133 44.7478 323.51 45.0988C323.159 45.2946 322.837 45.4119 322.544 45.4506C322.252 45.4892 321.93 45.5481 321.578 45.6261H321.403C320.504 45.6261 319.744 45.3241 319.12 44.7183C318.495 44.1137 317.969 43.3336 317.539 42.3767C317.109 41.421 316.768 40.3488 316.515 39.1574C316.26 37.9673 316.066 36.7962 315.93 35.6453C315.793 34.4945 315.704 33.4308 315.666 32.4548C315.627 31.4802 315.608 30.6988 315.608 30.1133C315.608 29.2159 315.645 27.8987 315.725 26.1623C315.803 24.4265 315.968 22.5035 316.222 20.3964C316.476 18.2887 316.808 16.1232 317.217 13.8982C317.627 11.6739 318.163 9.65453 318.827 7.84017C319.49 6.02521 320.291 4.5423 321.227 3.39084C322.164 2.2406 323.256 1.66425 324.505 1.66425C325.715 1.66425 326.797 2.13257 327.754 3.06921C328.71 4.00585 329.559 5.11803 330.3 6.40575C331.041 7.69348 331.666 9.04012 332.173 10.4445C332.68 11.8494 333.11 13.0205 333.462 13.9572C334.125 15.7918 334.769 17.6153 335.393 19.4303C336.017 21.2447 336.622 23.0891 337.208 24.9624C337.246 25.0409 337.325 25.2545 337.442 25.6056C337.559 25.9573 337.696 26.3477 337.852 26.7767C338.007 27.245 338.203 27.7717 338.437 28.3572C338.437 27.8508 338.427 27.4893 338.408 27.2745C338.387 27.0603 338.378 26.8645 338.378 26.6889V24.7279C338.34 23.4402 338.31 22.1518 338.291 20.8641C338.271 19.5764 338.262 18.3089 338.262 17.0599C338.262 16.513 338.271 15.7525 338.291 14.7766C338.31 13.8019 338.369 12.7572 338.467 11.645C338.563 10.5322 338.71 9.41147 338.905 8.27903C339.1 7.14721 339.382 6.1228 339.754 5.2058C340.124 4.28942 340.593 3.53753 341.159 2.95198C341.725 2.36643 342.418 2.07426 343.237 2.07426C344.212 2.07426 345.052 2.4456 345.754 3.18644C346.457 3.9279 347.042 4.87497 347.51 6.02521C347.978 7.17667 348.35 8.46439 348.623 9.88899C348.895 11.3136 349.11 12.7081 349.267 14.0738C349.422 15.4407 349.52 16.7082 349.559 17.8793C349.598 19.0498 349.618 19.9668 349.618 20.6303ZM381.61 39.889C381.747 38.7971 381.815 37.8605 381.815 37.0791C381.815 34.4656 381.64 31.8607 381.288 29.2644C380.937 26.6693 380.507 24.1043 380 21.5669L379.327 17.9376C379.073 16.5719 378.762 15.1774 378.391 13.7522C378.019 12.3282 377.562 10.9232 377.015 9.53729C376.468 8.15259 375.786 6.91336 374.966 5.8202C374.146 4.72828 373.19 3.85056 372.098 3.18644C371.005 2.52294 369.717 2.19088 368.234 2.19088C366.712 2.19088 365.327 2.58125 364.079 3.36199C362.829 4.14334 361.717 5.15731 360.741 6.40575C359.765 7.65542 358.898 9.06897 358.136 10.6495C357.376 12.23 356.712 13.8307 356.147 15.4499C355.581 17.0697 355.102 18.6397 354.712 20.1619C354.322 21.6841 354.009 23.0111 353.776 24.1423C353.307 26.2894 352.898 28.445 352.547 30.611C352.195 32.7771 352.019 34.972 352.019 37.1963C352.019 37.8605 352.049 38.6891 352.107 39.684C352.166 40.6796 352.331 41.6451 352.604 42.5817C352.878 43.5183 353.278 44.3292 353.804 45.0111C354.332 45.6942 355.063 46.0355 356 46.0355C357.209 46.0355 358.233 45.5874 359.073 44.6895C359.912 43.7915 360.595 42.7278 361.122 41.499C361.649 40.2696 362.039 38.9917 362.293 37.6647C362.547 36.3383 362.712 35.2261 362.79 34.3281C365.521 33.977 368.293 33.567 371.103 33.0987C371.141 33.9973 371.19 35.2065 371.249 36.728C371.308 38.2502 371.492 39.7429 371.805 41.2062C372.117 42.6695 372.633 43.9284 373.357 44.9816C374.078 46.0355 375.161 46.5627 376.605 46.5627C377.697 46.5627 378.576 46.2202 379.24 45.5383C379.903 44.8558 380.429 44.0161 380.82 43.0206C381.209 42.0256 381.473 40.9822 381.61 39.889ZM47.8646 22.9718C47.8646 22.5035 47.8357 21.7332 47.7768 20.6597C47.7185 19.5868 47.5908 18.5139 47.3963 17.4397C47.2005 16.3674 46.8985 15.4112 46.4891 14.5715C46.0791 13.7331 45.523 13.3132 44.8208 13.3132C44.4298 13.3132 44.0597 13.5766 43.7086 14.1032C43.3576 14.6304 43.0445 15.2939 42.772 16.0937C42.4982 16.8941 42.254 17.7816 42.0404 18.7569C41.8249 19.7328 41.6396 20.6701 41.4837 21.5668C41.3278 22.4648 41.2105 23.2744 41.1326 23.9962C41.054 24.7186 40.9957 25.2354 40.957 25.5472C43.2986 25.3527 45.6009 25.0599 47.8646 24.6695V22.9718ZM212.816 20.5425C212.875 21.6166 212.905 22.3863 212.905 22.8546V24.5523C210.641 24.9427 208.339 25.2355 205.997 25.4301C206.036 25.1183 206.094 24.6021 206.173 23.879C206.25 23.1572 206.368 22.3482 206.524 21.4497C206.679 20.5523 206.865 19.6157 207.08 18.6397C207.294 17.6651 207.538 16.7769 207.812 15.9765C208.084 15.1774 208.397 14.5133 208.749 13.986C209.1 13.4594 209.47 13.1961 209.86 13.1961C210.563 13.1961 211.119 13.6159 211.529 14.4543C211.939 15.2946 212.241 16.2497 212.436 17.3232C212.631 18.3967 212.758 19.4696 212.816 20.5425ZM245.744 15.7718C245.744 14.7572 245.51 13.9863 245.041 13.459C244.574 12.933 243.813 12.6691 242.759 12.6691C241.977 12.6691 241.187 12.8066 240.388 13.0791C239.588 13.3522 238.856 13.664 238.193 14.0157C238.348 17.0988 238.407 20.1622 238.368 23.2059C239.188 22.9334 240.027 22.5823 240.885 22.1521C241.743 21.723 242.534 21.1964 243.256 20.5716C243.978 19.948 244.574 19.2458 245.041 18.4644C245.51 17.6843 245.744 16.787 245.744 15.7718ZM370.429 20.5425C370.488 21.6166 370.517 22.3863 370.517 22.8546V24.5523C368.253 24.9427 365.952 25.2355 363.61 25.4301C363.648 25.1183 363.707 24.6021 363.785 23.879C363.863 23.1572 363.981 22.3482 364.136 21.4497C364.292 20.5523 364.478 19.6157 364.693 18.6397C364.907 17.6651 365.151 16.7769 365.425 15.9765C365.696 15.1774 366.01 14.5133 366.361 13.986C366.712 13.4594 367.083 13.1961 367.473 13.1961C368.176 13.1961 368.732 13.6159 369.142 14.4543C369.552 15.2946 369.853 16.2497 370.049 17.3232C370.244 18.3967 370.371 19.4696 370.429 20.5425Z" fill="#FEB500"/>
</svg>
