<svg xmlns="http://www.w3.org/2000/svg" width="24" height="24" fill="none" viewBox="0 0 24 24">
  <path fill="#131415" d="M16.823 8.473c4.032 0 4.776 2.614 4.776 6.096l.145 5.983a1 1 0 01-1 1.025h-2.129a1 1 0 01-1-1v-5.24c0-1.488-.024-3.384-2.064-3.384-2.064 0-2.376 1.608-2.376 3.288v5.36a1 1 0 01-1 1h-1.984a1 1 0 01-1-1V9.785a1 1 0 011-1h1.816a1 1 0 011 1v.752h.048c.528-1.008 1.824-2.064 3.768-2.064zM2.712 9.783a1 1 0 011-1h1.984a1 1 0 011 1V20.6a1 1 0 01-1 1H3.712a1 1 0 01-1-1V9.783zM4.704 2.4A2.305 2.305 0 002.4 4.704c0 1.272 1.032 2.328 2.304 2.328 1.272 0 2.304-1.056 2.304-2.328A2.305 2.305 0 004.704 2.4z"/>
</svg>
