<svg xmlns="http://www.w3.org/2000/svg" width="24" height="24" fill="none" viewBox="0 0 24 24">
  <path fill="#131415" d="M3 7a1 1 0 0 0-1 1v8a1 1 0 0 0 1 1h2a1 1 0 1 1 0 2H3a3 3 0 0 1-3-3V8a3 3 0 0 1 3-3h3.19a1 1 0 0 1 0 2H3Zm11-1a1 1 0 0 1 1-1h2a3 3 0 0 1 3 3v8a3 3 0 0 1-3 3h-3.19a1 1 0 1 1 0-2H17a1 1 0 0 0 1-1V8a1 1 0 0 0-1-1h-2a1 1 0 0 1-1-1Zm9 4a1 1 0 0 1 1 1v2a1 1 0 1 1-2 0v-2a1 1 0 0 1 1-1ZM11.832 6.555a1 1 0 0 0-1.664-1.11l-4 6A1 1 0 0 0 7 13h4.132l-2.964 4.445a1 1 0 0 0 1.664 1.11l4-6A1 1 0 0 0 13 11H8.869l2.963-4.445Z"/>
</svg>
