<svg width="24" height="24" viewBox="0 0 24 24" fill="none" xmlns="http://www.w3.org/2000/svg">
<path d="M16.9501 1.99829C16.0962 1.99829 15.2507 2.16652 14.462 2.49338L14.1697 2.62301C13.4958 2.94189 12.8811 3.37471 12.3529 3.90315L12 4.256L11.6472 3.90301C10.428 2.68379 8.77438 1.99883 7.05012 1.99883C5.32586 1.99883 3.67223 2.68378 2.45301 3.90302C1.23378 5.12224 0.548828 6.77587 0.548828 8.50012C0.548828 10.2244 1.23378 11.878 2.45301 13.0972L11.293 21.9372C11.6835 22.3277 12.3167 22.3277 12.7072 21.9372L21.5472 13.0972C22.1509 12.4938 22.6301 11.7771 22.9569 10.9882C23.2837 10.1995 23.4519 9.35404 23.4519 8.50012C23.4519 7.64619 23.2837 6.80069 22.9568 6.01193C22.6301 5.22325 22.151 4.50652 21.547 3.90284C20.9439 3.29935 20.2271 2.82026 19.4383 2.49338C18.6494 2.16652 17.8039 1.99829 16.9501 1.99829ZM16.9501 3.99829C17.5412 3.99829 18.1266 4.11476 18.6727 4.34105C19.2188 4.56733 19.715 4.89902 20.1328 5.31702C20.5513 5.73533 20.883 6.23149 21.1091 6.77748C21.3354 7.3236 21.4519 7.90891 21.4519 8.50012C21.4519 9.09132 21.3354 9.67664 21.1092 10.2227L21.0058 10.4536C20.7864 10.9089 20.4915 11.3247 20.1332 11.6828L12 19.815L3.86723 11.683C3.02307 10.8388 2.54883 9.69393 2.54883 8.50012C2.54883 7.3063 3.02307 6.16138 3.86722 5.31723C4.71137 4.47307 5.8563 3.99883 7.05012 3.99883C8.24394 3.99883 9.38886 4.47307 10.233 5.31722L11.293 6.37723C11.6835 6.76775 12.3167 6.76775 12.7072 6.37723L13.7672 5.31723C14.1853 4.89895 14.6815 4.5673 15.2276 4.34105C15.7737 4.11476 16.359 3.99829 16.9501 3.99829Z" fill="#131415"/>
</svg>
