<svg width="24" height="24" viewBox="0 0 24 24" fill="none" xmlns="http://www.w3.org/2000/svg">
<path fill-rule="evenodd" clip-rule="evenodd" d="M3 20C3 19.4477 3.44772 19 4 19L20 19C20.5523 19 21 19.4477 21 20C21 20.5523 20.5523 21 20 21L4 21C3.44772 21 3 20.5523 3 20Z" fill="#131415"/>
<path fill-rule="evenodd" clip-rule="evenodd" d="M18 5H6C5.44772 5 5 5.44772 5 6V14C5 14.5523 5.44772 15 6 15H18C18.5523 15 19 14.5523 19 14V6C19 5.44772 18.5523 5 18 5ZM6 3C4.34315 3 3 4.34315 3 6V14C3 15.6569 4.34315 17 6 17H18C19.6569 17 21 15.6569 21 14V6C21 4.34315 19.6569 3 18 3H6Z" fill="#131415"/>
</svg>
