<svg xmlns="http://www.w3.org/2000/svg" width="24" height="24" fill="none" viewBox="0 0 24 24">
  <path fill="#131415" d="M2.4 4.704a2.305 2.305 0 0 1 4.608 0c0 1.272-1.032 2.328-2.304 2.328-1.272 0-2.304-1.056-2.304-2.328Zm14.424 3.768c4.032 0 4.776 2.615 4.776 6.096l.145 5.984a1 1 0 0 1-1 1.024h-2.13a1 1 0 0 1-1-1v-5.24c0-1.488-.023-3.384-2.063-3.384-2.064 0-2.376 1.608-2.376 3.288v5.36a1 1 0 0 1-1 1h-1.984a1 1 0 0 1-1-1V9.784a1 1 0 0 1 1-1h1.816a1 1 0 0 1 1 1v.752h.048c.528-1.008 1.824-2.064 3.768-2.064ZM2.712 9.784a1 1 0 0 1 1-1h1.984a1 1 0 0 1 1 1V20.6a1 1 0 0 1-1 1H3.712a1 1 0 0 1-1-1V9.784Z"/>
</svg>
