<svg width="24" height="24" viewBox="0 0 24 24" fill="none" xmlns="http://www.w3.org/2000/svg">
<path d="M15.5625 2.75C15.1138 2.75 14.75 3.11377 14.75 3.5625C14.75 4.01123 15.1138 4.375 15.5625 4.375H18.296L14.9456 8.28373C14.7391 8.52465 14.6918 8.86373 14.8243 9.15201C14.9569 9.44029 15.2452 9.625 15.5625 9.625H20.0625C20.5112 9.625 20.875 9.26123 20.875 8.8125C20.875 8.36377 20.5112 8 20.0625 8H17.3291L20.6794 4.09127C20.8859 3.85035 20.9333 3.51127 20.8007 3.22299C20.6681 2.93472 20.3798 2.75 20.0625 2.75H15.5625ZM9.78659 4.60921C9.85258 4.42681 9.80712 4.2227 9.66996 4.08554C9.5328 3.94839 9.3287 3.90294 9.1463 3.96893C8.32009 4.26786 7.54108 4.69458 6.83907 5.23735C5.56182 6.22488 4.59223 7.55573 4.04375 9.0742C3.49527 10.5927 3.39058 12.2359 3.74195 13.8117C4.09331 15.3875 4.88619 16.8306 6.0278 17.9723C7.16942 19.1139 8.61255 19.9068 10.1883 20.2581C11.7641 20.6095 13.4074 20.5048 14.9259 19.9563C16.4443 19.4078 17.7752 18.4382 18.7627 17.161C19.3055 16.459 19.7322 15.68 20.0311 14.8538C20.0971 14.6714 20.0517 14.4673 19.9145 14.3301C19.7774 14.1929 19.5733 14.1475 19.3909 14.2135C18.4035 14.5707 17.3445 14.7194 16.2814 14.6401C14.49 14.5065 12.8061 13.7344 11.5359 12.4642C10.2656 11.194 9.49353 9.51003 9.35994 7.71864C9.28066 6.65555 9.42938 5.59653 9.78659 4.60921Z" fill="#131415"/>
</svg>
