<svg width="24" height="24" viewBox="0 0 24 24" fill="none" xmlns="http://www.w3.org/2000/svg">
<path fill-rule="evenodd" clip-rule="evenodd" d="M12 1C5.92 1 1 5.92 1 12C1 18.08 5.92 23 12 23C18.08 23 23 18.08 23 12C23 5.92 18.08 1 12 1ZM8.38 3.76C9.28 5.8 9.3 7.98 8.34 9.65C7.28 11.48 5.44 12.58 3.04 12.66C3.02 12.44 3.01 12.22 3.01 12C3.01 8.32 5.22 5.16 8.39 3.76H8.38ZM3.39 14.61C6.27 14.32 8.77 12.9 10.07 10.65C11.32 8.48 11.35 5.73 10.28 3.17C10.84 3.06 11.41 3 12 3C16 3 19.39 5.61 20.56 9.22C17.89 9.62 15.61 11.01 14.38 13.14C13.11 15.34 13.1 18.13 14.21 20.72C13.5 20.9 12.77 21 12 21C7.94 21 4.51 18.31 3.39 14.61ZM16.05 20.02C15.15 17.98 15.14 15.81 16.11 14.13C17.04 12.51 18.84 11.47 20.96 11.18C20.98 11.45 21 11.72 21 11.99C21 15.5 18.98 18.54 16.05 20.02Z" fill="#131415"/>
</svg>
