<svg width="24" height="24" viewBox="0 0 24 24" fill="none" xmlns="http://www.w3.org/2000/svg">
<path fill-rule="evenodd" clip-rule="evenodd" d="M4 3C2.34315 3 1 4.34315 1 6V18C1 19.6569 2.34315 21 4 21H7.76015C7.99886 21 8.2297 21.0854 8.41094 21.2407L10.0476 22.6436C11.1711 23.6066 12.8289 23.6066 13.9524 22.6436L15.5891 21.2407C15.7703 21.0854 16.0011 21 16.2398 21H20C21.6569 21 23 19.6569 23 18V6C23 4.34315 21.6569 3 20 3H4ZM3 6C3 5.44772 3.44772 5 4 5H20C20.5523 5 21 5.44772 21 6V18C21 18.5523 20.5523 19 20 19H16.2398C15.5237 19 14.8312 19.2562 14.2875 19.7222L12.6508 21.1251C12.2763 21.4461 11.7237 21.4461 11.3492 21.1251L9.71253 19.7222C9.1688 19.2562 8.47629 19 7.76015 19H4C3.44772 19 3 18.5523 3 18V6ZM19 12C19 12.5523 18.5523 13 18 13H11C10.4477 13 10 12.5523 10 12C10 11.4477 10.4477 11 11 11H18C18.5523 11 19 11.4477 19 12ZM8 12C8 12.5523 7.55229 13 7 13H6C5.44771 13 5 12.5523 5 12C5 11.4477 5.44771 11 6 11H7C7.55229 11 8 11.4477 8 12ZM5 16C5 15.4477 5.44772 15 6 15H13C13.5523 15 14 15.4477 14 16C14 16.5523 13.5523 17 13 17H6C5.44772 17 5 16.5523 5 16ZM16 16C16 15.4477 16.4477 15 17 15H18C18.5523 15 19 15.4477 19 16C19 16.5523 18.5523 17 18 17H17C16.4477 17 16 16.5523 16 16Z" fill="#131415"/>
</svg>
